<svg width="158" height="40" viewBox="0 0 158 40" fill="none" xmlns="http://www.w3.org/2000/svg">
<path d="M50.7242 15.4505C50.7242 12.6325 47.9839 9.63954 43.2419 9.63954C37.9168 9.63954 32.067 13.5459 31.173 21.3391C30.2596 29.2101 35.1571 32.7084 40.0935 32.7084C45.0299 32.7084 47.6147 30.7843 50.2578 28.219C47.9839 25.3621 45.0493 26.6836 44.4857 26.9752C43.8638 27.2861 43.067 27.7137 41.4345 27.7137C39.5299 27.7137 37.5864 26.8586 37.5864 23.302C49.7913 22.0971 50.7242 18.2685 50.7242 15.4505ZM44.68 15.9169C44.6023 16.7915 44.2525 18.2879 38.0723 19.1236C39.3744 14.4982 41.862 14.1484 43.0087 14.1484C44.0776 14.1484 44.7578 14.984 44.68 15.9169ZM24.0017 16.6749C24.0017 16.6749 21.378 24.9151 21.1642 25.5953C21.0865 24.8957 19.1625 10.106 19.1625 10.106C14.6925 10.106 12.3021 13.2932 11.0388 16.6554C11.0388 16.6554 7.85156 24.9151 7.57948 25.6147C7.56004 24.9734 7.09361 16.7526 7.09361 16.7526C6.82153 12.6325 3.05123 10.1254 0 10.1254L3.69257 32.5334C8.3763 32.514 10.9028 29.3462 12.2243 25.984C12.2243 25.984 15.0423 18.696 15.159 18.3657C15.1784 18.6766 17.1802 32.5334 17.1802 32.5334C21.8833 32.5334 24.4098 29.56 25.7702 26.3144L32.3585 10.1254C27.7137 10.1254 25.2649 13.2932 24.0017 16.6749ZM67.9821 9.60067C65.0863 9.60067 62.8708 11.1749 61.0051 13.4876V13.4681L62.6765 0C58.8284 0 55.6994 3.34274 55.097 8.31799L52.1818 32.3585C54.3973 32.3585 56.7489 31.7172 58.0122 30.0847C59.1394 31.5423 60.8302 32.7084 63.3372 32.7084C69.8284 32.7084 74.2789 25.1678 74.2789 18.0936C74.24 11.6413 71.1111 9.60067 67.9821 9.60067ZM67.3796 21.1642C66.6994 25.1094 64.5033 27.7914 62.3849 27.7914C60.2471 27.7914 59.3337 26.8391 59.3337 26.8391C59.7418 23.3798 59.9945 21.2614 60.7719 19.4346C61.5493 17.6077 63.3955 14.6925 65.3196 14.6925C67.2047 14.6925 68.0598 17.1996 67.3796 21.1642ZM90.4873 10.1254H85.9591L85.9785 9.89219C86.2894 6.93814 86.9891 5.38337 89.3018 5.13072C90.876 4.97525 91.5756 4.159 91.7506 3.26501C91.8866 2.56536 92.3142 0.136042 92.3142 0.136042C83.2188 0.0777382 80.3619 4.00352 79.6234 9.98936L79.604 10.1254H79.5068C78.0298 10.1254 76.3973 11.7968 76.1252 13.9151L76.028 14.6925H79.0598L76.5139 35.7207L75.7365 39.491C75.8337 39.491 75.9503 39.5105 76.0474 39.5105C80.3036 39.355 83.0244 35.9928 83.6269 31.1147L85.6092 14.6925H87.028C88.4272 14.6925 90.0597 13.2932 90.3513 10.9611L90.4873 10.1254ZM114.042 9.73671C108.814 9.73671 103.878 13.5848 102.362 19.6289C100.846 25.6731 103.139 32.825 110.835 32.825C118.512 32.825 122.943 25.3815 122.943 19.1819C122.943 13.0212 118.765 9.73671 114.042 9.73671ZM116.16 20.9699C115.888 23.7102 114.683 27.8692 111.379 27.8692C108.056 27.8692 108.523 23.0105 108.853 20.6978C109.203 18.2296 110.583 14.712 113.556 14.712C116.219 14.712 116.471 17.8798 116.16 20.9699ZM148.772 16.6749C148.772 16.6749 146.148 24.9151 145.934 25.5953C145.856 24.8957 143.932 10.106 143.932 10.106C139.462 10.106 137.072 13.2932 135.809 16.6554C135.809 16.6554 132.621 24.9151 132.349 25.6147C132.33 24.9734 131.863 16.7526 131.863 16.7526C131.591 12.6325 127.821 10.1254 124.77 10.1254L128.443 32.5334C133.127 32.514 135.653 29.3462 136.975 25.984C136.975 25.984 139.793 18.696 139.89 18.3657C139.929 18.6766 141.911 32.5334 141.911 32.5334C146.614 32.5334 149.141 29.56 150.501 26.3144L157.09 10.1254C152.464 10.1254 150.015 13.2932 148.772 16.6749ZM94.7629 0.136042L90.9537 30.8621L90.1764 34.6518C90.2735 34.6518 90.3901 34.6712 90.4873 34.6712C94.588 34.6129 97.5032 31.0176 98.0474 26.4893L100.243 8.86216C100.904 3.47879 97.6975 0.136042 94.7629 0.136042Z" fill="#4353FF"/>
</svg>
