<svg width="109" height="24" viewBox="0 0 109 24" fill="none" xmlns="http://www.w3.org/2000/svg">
<path d="M14.3136 13.7091L11.5754 6.32788C11.4637 6.026 11.0366 6.026 10.9247 6.32788L8.18691 13.7095C8.16748 13.762 8.16102 13.8184 8.16809 13.8739C8.17517 13.9294 8.19555 13.9824 8.22752 14.0283C8.2595 14.0743 8.3021 14.1118 8.3517 14.1377C8.4013 14.1636 8.45644 14.1771 8.51239 14.1771H13.9881C14.0441 14.1771 14.0992 14.1635 14.1488 14.1376C14.1984 14.1117 14.241 14.0741 14.273 14.0282C14.3049 13.9822 14.3253 13.9292 14.3323 13.8737C14.3394 13.8182 14.3329 13.7618 14.3134 13.7093L14.3136 13.7091ZM15.5785 17.8579H6.92224C6.85142 17.858 6.7823 17.8796 6.72416 17.9201C6.66602 17.9605 6.62165 18.0178 6.597 18.0842L4.89281 22.677C4.86816 22.7434 4.82379 22.8006 4.76565 22.8411C4.70751 22.8815 4.63838 22.9032 4.56756 22.9032H0.81566C0.758942 22.9032 0.703093 22.8893 0.653 22.8627C0.602908 22.8361 0.560098 22.7976 0.528321 22.7506C0.496545 22.7036 0.47677 22.6496 0.470726 22.5932C0.464682 22.5368 0.472553 22.4798 0.493652 22.4271L9.13166 0.908572C9.15752 0.844298 9.20204 0.789239 9.25947 0.750485C9.3169 0.711731 9.38461 0.691057 9.45389 0.691124H13.0464C13.188 0.691124 13.3154 0.777178 13.3684 0.908572L22.0062 22.4269C22.0274 22.4796 22.0353 22.5366 22.0293 22.5931C22.0233 22.6495 22.0036 22.7037 21.9718 22.7507C21.94 22.7978 21.8972 22.8363 21.847 22.8629C21.7969 22.8895 21.741 22.9035 21.6842 22.9034H17.933C17.8621 22.9034 17.793 22.8817 17.7348 22.8412C17.6767 22.8007 17.6323 22.7434 17.6077 22.677L15.9033 18.0842C15.8787 18.0178 15.8343 17.9605 15.7761 17.9201C15.718 17.8796 15.6489 17.858 15.5781 17.8579H15.5785ZM23.7641 8.24305H26.973C27.0651 8.24305 27.1533 8.2796 27.2184 8.34468C27.2835 8.40975 27.32 8.49801 27.32 8.59004V22.5562C27.32 22.6482 27.2835 22.7365 27.2184 22.8016C27.1533 22.8666 27.0651 22.9032 26.973 22.9032H23.7641C23.672 22.9032 23.5838 22.8666 23.5187 22.8016C23.4536 22.7365 23.4171 22.6482 23.4171 22.5562V8.58981C23.4171 8.49778 23.4536 8.40952 23.5187 8.34445C23.5838 8.27937 23.672 8.24281 23.7641 8.24281V8.24305ZM39.0233 11.6403C39.0233 11.7323 38.9868 11.8206 38.9217 11.8857C38.8566 11.9508 38.7684 11.9873 38.6764 11.9873H38.5792C36.9925 11.9873 35.8287 12.3681 35.0885 13.1296C34.3478 13.8911 33.9781 15.15 33.9781 16.9058V22.5562C33.9781 22.6482 33.9415 22.7365 33.8765 22.8016C33.8114 22.8666 33.7231 22.9032 33.6311 22.9032H30.4536C30.3616 22.9032 30.2733 22.8666 30.2082 22.8016C30.1431 22.7365 30.1066 22.6482 30.1066 22.5562V8.58981C30.1066 8.49778 30.1431 8.40952 30.2082 8.34445C30.2733 8.27937 30.3616 8.24281 30.4536 8.24281H33.5992C33.6912 8.24281 33.7795 8.27937 33.8445 8.34445C33.9096 8.40952 33.9462 8.49778 33.9462 8.58981V11.3523H34.0098C34.3905 10.21 34.9934 9.3326 35.8188 8.71865C36.6434 8.10541 37.659 7.79843 38.8647 7.79843H39.0233V11.6401V11.6403ZM47.7976 11.5112C47.7056 11.5112 47.6173 11.5478 47.5522 11.6129C47.4872 11.6779 47.4506 11.7662 47.4506 11.8582V17.6673C47.4506 18.2598 47.5663 18.6829 47.7995 18.9366C48.0319 19.1904 48.434 19.3174 49.0051 19.3174H49.3246C49.4166 19.3174 49.5049 19.354 49.57 19.419C49.635 19.4841 49.6716 19.5724 49.6716 19.6644V22.5877C49.6716 22.6797 49.635 22.768 49.57 22.833C49.5049 22.8981 49.4166 22.9347 49.3246 22.9347H47.9579C46.5406 22.9347 45.4512 22.5699 44.6897 21.84C43.9279 21.1102 43.5472 20.0264 43.5472 18.5876V11.8582C43.5472 11.7662 43.5106 11.6779 43.4456 11.6129C43.3805 11.5478 43.2922 11.5112 43.2002 11.5112H41.1971C41.1051 11.5112 41.0168 11.4747 40.9518 11.4096C40.8867 11.3445 40.8501 11.2563 40.8501 11.1643V8.58981C40.8501 8.49778 40.8867 8.40952 40.9518 8.34445C41.0168 8.27937 41.1051 8.24281 41.1971 8.24281H43.2004C43.2925 8.24281 43.3807 8.20625 43.4458 8.14118C43.5109 8.07611 43.5474 7.98785 43.5474 7.89582V2.7194C43.5474 2.62738 43.584 2.53912 43.649 2.47404C43.7141 2.40897 43.8024 2.37241 43.8944 2.37241H47.1034C47.1954 2.37241 47.2837 2.40897 47.3487 2.47404C47.4138 2.53912 47.4504 2.62738 47.4504 2.7194V7.89582C47.4504 7.98785 47.4869 8.07611 47.552 8.14118C47.6171 8.20625 47.7053 8.24281 47.7974 8.24281H50.1178C50.2098 8.24281 50.2981 8.27937 50.3632 8.34445C50.4282 8.40952 50.4648 8.49778 50.4648 8.58981V11.1645C50.4648 11.2565 50.4282 11.3448 50.3632 11.4098C50.2981 11.4749 50.2098 11.5115 50.1178 11.5115H47.7976V11.5112ZM62.4918 18.5559C63.2216 17.7943 63.5864 16.8001 63.5864 15.5729C63.5864 14.3464 63.2216 13.3517 62.4918 12.5902C61.7619 11.8286 60.8045 11.4479 59.6198 11.4479C58.435 11.4479 57.4782 11.8286 56.7481 12.5902C56.0185 13.3517 55.6535 14.3464 55.6535 15.5729C55.6535 16.8001 56.0185 17.7943 56.7481 18.5559C57.4782 19.3174 58.435 19.6982 59.6198 19.6982C60.8045 19.6982 61.7619 19.3174 62.4918 18.5559ZM55.0823 22.4588C54.0034 21.8456 53.1517 20.9515 52.528 19.7775C51.9037 18.6035 51.5918 17.2021 51.5918 15.5729C51.5918 13.9443 51.9037 12.5425 52.528 11.3685C53.1517 10.1945 54.0034 9.30114 55.0823 8.68719C56.1613 8.07371 57.3456 7.76697 58.6362 7.76697C59.7785 7.76697 60.7568 7.98905 61.5718 8.4332C62.3856 8.87735 63.0361 9.5017 63.523 10.3056H63.5864V8.58981C63.5864 8.49778 63.623 8.40952 63.688 8.34445C63.7531 8.27937 63.8414 8.24281 63.9334 8.24281H67.1107C67.2027 8.24281 67.291 8.27937 67.356 8.34445C67.4211 8.40952 67.4577 8.49778 67.4577 8.58981V22.556C67.4577 22.648 67.4211 22.7363 67.356 22.8013C67.291 22.8664 67.2027 22.903 67.1107 22.903H63.9334C63.8414 22.903 63.7531 22.8664 63.688 22.8013C63.623 22.7363 63.5864 22.648 63.5864 22.556V20.8405H63.523C63.0361 21.6448 62.3856 22.2684 61.5715 22.7126C60.7568 23.1567 59.7787 23.3788 58.6362 23.3788C57.3456 23.3788 56.1613 23.0721 55.0823 22.4588ZM80.6718 18.5559C81.4016 17.7943 81.7664 16.8001 81.7664 15.5729C81.7664 14.3464 81.4016 13.3517 80.6718 12.5902C79.9422 11.8286 78.9847 11.4479 77.8001 11.4479C76.6152 11.4479 75.6582 11.8286 74.9284 12.5902C74.1988 13.3517 73.8335 14.3464 73.8335 15.5729C73.8335 16.8001 74.1988 17.7943 74.9284 18.5559C75.6582 19.3174 76.6152 19.6982 77.8001 19.6982C78.9847 19.6982 79.9422 19.3174 80.6718 18.5559ZM75.8486 22.7126C75.0341 22.2684 74.3834 21.6448 73.8971 20.8405H73.8335V22.556C73.8335 22.648 73.797 22.7363 73.7319 22.8013C73.6668 22.8664 73.5785 22.903 73.4865 22.903H70.2776C70.1855 22.903 70.0973 22.8664 70.0322 22.8013C69.9671 22.7363 69.9306 22.648 69.9306 22.556V1.03742C69.9306 0.945393 69.9671 0.857135 70.0322 0.792061C70.0973 0.726988 70.1855 0.69043 70.2776 0.69043H73.4865C73.5785 0.69043 73.6668 0.726988 73.7319 0.792061C73.797 0.857135 73.8335 0.945393 73.8335 1.03742V10.3053H73.8971C74.3834 9.50147 75.0341 8.87735 75.8486 8.4332C76.6629 7.98882 77.6414 7.76674 78.7839 7.76674C80.074 7.76674 81.2589 8.07348 82.3378 8.68696C83.4167 9.30091 84.268 10.1943 84.8921 11.3681C85.516 12.5427 85.8285 13.9446 85.8285 15.5731C85.8285 17.2024 85.516 18.6035 84.8924 19.7777C84.2682 20.9517 83.417 21.8458 82.3381 22.4588C81.2591 23.0723 80.0743 23.3793 78.7842 23.3793C77.6416 23.3793 76.6631 23.1572 75.8488 22.7128L75.8486 22.7126ZM91.2351 22.9032H88.0262C87.9341 22.9032 87.8459 22.8666 87.7808 22.8016C87.7157 22.7365 87.6792 22.6482 87.6792 22.5562V1.03812C87.6792 0.946087 87.7157 0.857828 87.7808 0.792755C87.8459 0.727681 87.9341 0.691124 88.0262 0.691124H91.2351C91.3272 0.691124 91.4154 0.727681 91.4805 0.792755C91.5456 0.857828 91.5821 0.946087 91.5821 1.03812V22.5562C91.5821 22.6482 91.5456 22.7365 91.4805 22.8016C91.4154 22.8666 91.3272 22.9032 91.2351 22.9032ZM98.8046 11.6385C98.2726 12.0535 97.9133 12.6526 97.7273 13.4363C97.6762 13.6524 97.8449 13.8597 98.0669 13.8597H104.174C104.386 13.8597 104.552 13.67 104.518 13.4609C104.396 12.7195 104.078 12.1284 103.564 11.6861C102.962 11.168 102.173 10.9089 101.2 10.9089C100.227 10.9089 99.4283 11.152 98.8046 11.6385ZM106.627 9.81376C107.875 11.1786 108.499 13.109 108.499 15.6048V16.0194C108.499 16.1114 108.462 16.1996 108.397 16.2647C108.332 16.3298 108.244 16.3663 108.152 16.3663H97.9492C97.8984 16.3665 97.8482 16.3776 97.8021 16.3991C97.7561 16.4207 97.7153 16.4519 97.6826 16.4908C97.6498 16.5297 97.626 16.5753 97.6127 16.6244C97.5995 16.6734 97.5971 16.7248 97.6057 16.7749C97.7688 17.702 98.1789 18.4386 98.8363 18.9843C99.587 19.6089 100.534 19.9205 101.676 19.9205C103.151 19.9205 104.516 19.3449 105.771 18.1936C105.925 18.053 106.168 18.0828 106.287 18.2537L107.847 20.493C107.896 20.5626 107.917 20.6478 107.907 20.7324C107.898 20.8169 107.857 20.8949 107.794 20.9515C107.028 21.6218 106.177 22.1874 105.262 22.6335C104.246 23.1304 103.051 23.3793 101.676 23.3793C100.09 23.3793 98.7038 23.0563 97.5194 22.4114C96.3343 21.7665 95.4143 20.8569 94.7589 19.6824C94.1029 18.5084 93.7751 17.1494 93.7751 15.6048C93.7751 14.0609 94.0925 12.6966 94.727 11.5115C95.3615 10.3271 96.2501 9.40685 97.3926 8.75081C98.5349 8.09546 99.8676 7.7672 101.391 7.7672C103.632 7.7672 105.378 8.44962 106.627 9.81376ZM27.7392 3.07981C27.7392 4.38866 26.6781 5.44976 25.369 5.44976C24.0597 5.44976 22.9986 4.38866 22.9986 3.07958C22.9986 1.7705 24.0599 0.709399 25.369 0.709399C26.6781 0.709399 27.7392 1.7705 27.7392 3.07958" fill="#333333"/>
</svg>
