<svg width="150" height="106" viewBox="0 0 150 104" fill="none" xmlns="http://www.w3.org/2000/svg">
<path d="M30.6611 46.0398C30.6611 55.9809 38.72 64.0398 48.6611 64.0398L91.0626 64.0398C93.824 64.0398 96.0626 61.8012 96.0626 59.0398L96.0626 10.0131C96.0626 4.49028 91.5854 0.0131249 86.0626 0.0131253L35.6611 0.0131298C32.8997 0.01313 30.6611 2.25171 30.6611 5.01313L30.6611 46.0398Z" fill="#FFF1DA"/>
<path d="M94.2122 58.7367C92.4355 59.1342 90.7049 59.8706 89.128 60.8995C85.0198 63.5145 82.6296 67.2473 83.7898 69.2362C84.9499 71.2251 89.2207 70.7165 93.329 68.1014C94.9271 67.1089 96.3468 65.8404 97.5007 64.3744C98.0362 63.666 98.1323 62.7834 97.7461 62.1236L96.239 59.5399C95.8556 58.878 95.0602 58.5633 94.2122 58.7367Z" fill="#D5D6DB"/>
<path d="M83.8948 23.4654C82.6064 23.7538 81.3515 24.288 80.2079 25.0342C77.2298 26.9299 75.4956 29.6365 76.3362 31.0775C77.1767 32.5185 80.2747 32.1493 83.2526 30.2538C84.4113 29.5337 85.4407 28.6135 86.2776 27.5503C86.6654 27.0369 86.7349 26.3975 86.455 25.9191L85.3637 24.0483C85.086 23.5685 84.5097 23.3398 83.8948 23.4654Z" fill="#D5D6DB"/>
<path d="M67.1337 24.9423C66.8469 24.9103 66.5411 24.9866 66.2759 25.1559L59.2803 29.6093C58.6951 29.9806 58.461 30.6958 58.7578 31.207C58.8257 31.3241 58.9186 31.4241 59.0314 31.5012L76.2734 43.3722L99.6 28.5223L67.1337 24.9423Z" fill="#029BC5"/>
<path d="M140.878 23.2647L77.397 63.1861L39.8399 78.1153L20.6863 81.9187L18.5791 78.342L124.392 13.0785C127.546 11.1252 131.059 9.92622 134.576 9.60335C136.116 9.47021 137.637 9.52138 139.103 9.75501C140.403 9.95193 141.637 10.3318 142.767 10.8833C144.027 11.5082 146.427 11.5803 147.204 12.8253C147.207 12.8233 149.041 18.5392 140.878 23.2647Z" fill="#E1E6E9"/>
<path d="M78.2365 57.9033L50.7741 101.637C50.4311 102.252 50.6347 102.94 51.2284 103.174C51.5928 103.318 52.0387 103.261 52.4133 103.023L59.4034 98.5932C60.7479 97.7408 61.9384 96.6581 62.9013 95.4122L116.159 32.8634L78.2365 57.9033Z" fill="#029BC5"/>
<path d="M8.93838 56.4431C8.48028 56.2867 7.93511 56.3678 7.47491 56.6606L1.69671 60.3368C0.909384 60.8373 0.595652 61.7996 0.995728 62.4864C1.07195 62.617 1.17097 62.7319 1.28966 62.8266L17.4788 75.7787L34.5002 65.158L8.93838 56.4431Z" fill="#029BC5"/>
<path d="M22.9047 78.1136L14.1913 90.3042C14.0636 90.4794 14.0936 90.6993 14.2583 90.7952C14.3772 90.8642 14.5394 90.8518 14.6712 90.7635L20.0711 87.3453C20.113 87.3188 20.151 87.2855 20.1824 87.2475L32.9142 71.7834L22.9047 78.1136Z" fill="#029BC5"/>
<path d="M138.06 10.2803C136.55 10.038 134.983 9.9863 133.397 10.1256C131.852 12.283 130.865 14.7065 130.533 17.1544C130.509 17.6462 130.906 18.0001 131.42 17.945C131.58 17.9276 131.738 17.8716 131.882 17.7817L141.833 11.4519C140.669 10.8788 139.399 10.4844 138.06 10.2803Z" fill="#029BC5"/>
<path d="M116.374 21.9194L122.871 17.8205L128.923 28.1027L122.426 32.2016L116.374 21.9194Z" fill="#D5D6DB"/>
<path d="M112.284 25.9867C111.501 26.4821 111.188 27.4344 111.586 28.1135L112.23 29.2137C112.653 29.8755 113.62 29.9918 114.39 29.4735C115.122 28.9798 115.417 28.0826 115.064 27.4201L114.42 26.3199C114.023 25.6414 113.067 25.4921 112.284 25.9867Z" fill="#3A556A"/>
<path d="M106.444 29.6093C105.661 30.1047 105.349 31.057 105.746 31.7361L106.39 32.8362C106.814 33.498 107.781 33.6144 108.55 33.096C109.282 32.6024 109.577 31.7051 109.224 31.0426L108.58 29.9424C108.183 29.2641 107.227 29.1148 106.444 29.6093Z" fill="#3A556A"/>
<path d="M100.603 33.2334C99.8208 33.7294 99.509 34.6806 99.9061 35.3591L100.55 36.4592C100.974 37.121 101.941 37.2374 102.71 36.719C103.442 36.2254 103.737 35.3282 103.384 34.6657L102.74 33.5655C102.343 32.8864 101.386 32.7378 100.603 33.2334Z" fill="#3A556A"/>
<path d="M94.765 36.8559C93.9829 37.352 93.6711 38.3032 94.0683 38.9817L94.7122 40.0819C95.1358 40.7436 96.1028 40.86 96.8723 40.3416C97.6046 39.848 97.8994 38.9508 97.5466 38.2882L96.9026 37.188C96.5048 36.5092 95.5479 36.3605 94.765 36.8559Z" fill="#3A556A"/>
<path d="M88.926 40.4786C88.1435 40.9749 87.8315 41.9264 88.2288 42.6052L88.8732 43.7059C89.2704 44.3844 90.2269 44.533 91.0096 44.0378C91.7923 43.5426 92.1047 42.5911 91.7075 41.9126L91.0632 40.8119C90.667 40.1328 89.7108 39.9832 88.9276 40.4775C88.927 40.478 88.9266 40.4782 88.926 40.4786Z" fill="#3A556A"/>
<path d="M83.0861 44.1016C82.3036 44.5979 81.9916 45.5495 82.389 46.2283L83.0333 47.3289C83.4305 48.0074 84.387 48.156 85.1697 47.6608C85.9524 47.1656 86.2649 46.2141 85.8677 45.5356L85.2234 44.435C84.8271 43.7558 83.871 43.6062 83.0878 44.1006C83.0871 44.101 83.0865 44.1014 83.0861 44.1016Z" fill="#3A556A"/>
<path d="M77.2443 47.7242C76.4618 48.2205 76.1498 49.172 76.5472 49.8508L77.1915 50.9514C77.5897 51.6293 78.5467 51.7764 79.3285 51.2805C80.109 50.7855 80.4209 49.836 80.0255 49.1584L79.3812 48.0577C78.9841 47.3787 78.0276 47.2294 77.2443 47.7242Z" fill="#3A556A"/>
<path d="M71.4064 51.3467C70.6239 51.843 70.3119 52.7946 70.7093 53.4734L71.3536 54.5741C71.7518 55.2519 72.7088 55.399 73.4906 54.9032C74.2711 54.4081 74.583 53.4586 74.1876 52.7809L73.5433 51.6803C73.1462 51.0013 72.1898 50.8519 71.4064 51.3467Z" fill="#3A556A"/>
<path d="M65.5666 54.9698C64.7841 55.4661 64.4721 56.4176 64.8695 57.0964L65.5138 58.197C65.912 58.8749 66.8689 59.022 67.6508 58.5261C68.4313 58.0311 68.7431 57.0817 68.3477 56.404L67.7034 55.3033C67.3061 54.6246 66.3496 54.4752 65.5666 54.9698Z" fill="#3A556A"/>
<path d="M59.7248 58.5933C58.9421 59.0885 58.6296 60.04 59.0268 60.7185L59.0277 60.72L59.672 61.8206C60.0702 62.4985 61.0271 62.6456 61.809 62.1498C62.5895 61.6547 62.9013 60.7052 62.506 60.0275L61.8616 58.9269C61.4646 58.2478 60.5081 58.0985 59.7248 58.5933Z" fill="#3A556A"/>
<path d="M53.8869 62.2149C53.1042 62.7101 52.7917 63.6616 53.1889 64.3401L53.1898 64.3415L53.8341 65.4421C54.2323 66.12 55.1893 66.2671 55.9711 65.7713C56.7517 65.2762 57.0635 64.3268 56.6681 63.6491L56.0238 62.5485C55.6264 61.8697 54.6699 61.7203 53.8869 62.2149Z" fill="#3A556A"/>
</svg>
