<svg width="184" height="159" viewBox="0 0 184 159" fill="none" xmlns="http://www.w3.org/2000/svg">
<path d="M11.5586 12.6104V14.4795H0.837891V12.6104H11.5586ZM7.19727 8.04492V19.4316H5.20996V8.04492H7.19727Z" fill="#FF7152"/>
<path d="M11.5586 45.9268V47.7959H0.837891V45.9268H11.5586ZM7.19727 41.3613V52.748H5.20996V41.3613H7.19727Z" fill="#0090C5"/>
<path d="M11.5586 79.2422V81.1113H0.837891V79.2422H11.5586ZM7.19727 74.6768V86.0635H5.20996V74.6768H7.19727Z" fill="#0090C5"/>
<path d="M57.3398 12.6104V14.4795H46.6191V12.6104H57.3398ZM52.9785 8.04492V19.4316H50.9912V8.04492H52.9785Z" fill="#0090C5"/>
<path d="M57.3398 45.9268V47.7959H46.6191V45.9268H57.3398ZM52.9785 41.3613V52.748H50.9912V41.3613H52.9785Z" fill="#0090C5"/>
<path d="M57.3398 79.2422V81.1113H46.6191V79.2422H57.3398ZM52.9785 74.6768V86.0635H50.9912V74.6768H52.9785Z" fill="#0090C5"/>
<path d="M57.3398 112.559V114.428H46.6191V112.559H57.3398ZM52.9785 107.993V119.38H50.9912V107.993H52.9785Z" fill="#0090C5"/>
<path d="M103.121 12.6104V14.4795H92.4004V12.6104H103.121ZM98.7598 8.04492V19.4316H96.7725V8.04492H98.7598Z" fill="#0090C5"/>
<path d="M103.121 45.9268V47.7959H92.4004V45.9268H103.121ZM98.7598 41.3613V52.748H96.7725V41.3613H98.7598Z" fill="#0090C5"/>
<path d="M103.121 79.2422V81.1113H92.4004V79.2422H103.121ZM98.7598 74.6768V86.0635H96.7725V74.6768H98.7598Z" fill="#6246E5"/>
<path d="M103.121 112.559V114.428H92.4004V112.559H103.121ZM98.7598 107.993V119.38H96.7725V107.993H98.7598Z" fill="#0090C5"/>
<path d="M103.121 145.874V147.743H92.4004V145.874H103.121ZM98.7598 141.309V152.695H96.7725V141.309H98.7598Z" fill="#0090C5"/>
<path d="M148.902 12.6104V14.4795H138.182V12.6104H148.902ZM144.541 8.04492V19.4316H142.554V8.04492H144.541Z" fill="#0090C5"/>
<path d="M148.902 45.9268V47.7959H138.182V45.9268H148.902ZM144.541 41.3613V52.748H142.554V41.3613H144.541Z" fill="#0090C5"/>
<path d="M148.902 79.2422V81.1113H138.182V79.2422H148.902ZM144.541 74.6768V86.0635H142.554V74.6768H144.541Z" fill="#0090C5"/>
<path d="M148.902 112.559V114.428H138.182V112.559H148.902ZM144.541 107.993V119.38H142.554V107.993H144.541Z" fill="#0090C5"/>
<path d="M148.902 145.874V147.743H138.182V145.874H148.902ZM144.541 141.309V152.695H142.554V141.309H144.541Z" fill="#0090C5"/>
<path d="M194.684 12.6104V14.4795H183.963V12.6104H194.684ZM190.322 8.04492V19.4316H188.335V8.04492H190.322Z" fill="#0090C5"/>
<path d="M194.684 45.9268V47.7959H183.963V45.9268H194.684ZM190.322 41.3613V52.748H188.335V41.3613H190.322Z" fill="#0090C5"/>
<path d="M194.684 79.2422V81.1113H183.963V79.2422H194.684ZM190.322 74.6768V86.0635H188.335V74.6768H190.322Z" fill="#0090C5"/>
<path d="M194.684 112.559V114.428H183.963V112.559H194.684ZM190.322 107.993V119.38H188.335V107.993H190.322Z" fill="#0090C5"/>
<path d="M194.684 145.874V147.743H183.963V145.874H194.684ZM190.322 141.309V152.695H188.335V141.309H190.322Z" fill="#0090C5"/>
</svg>
