<svg width="158" height="559" viewBox="0 0 158 559" fill="none" xmlns="http://www.w3.org/2000/svg">
<g opacity="0.5" clip-path="url(#clip0_2038_12099)">
<g opacity="0.7">
<path d="M0.335809 301.653L-0.118618 225.946L-0.131233 225.163L5.8142 225.125L5.8142 225.908L6.28125 301.615L6.28125 302.399L0.348434 302.437L0.335809 301.653Z" fill="url(#paint0_linear_2038_12099)"/>
</g>
<g opacity="0.7">
<path d="M4.48726 307.818L-11.342 308.715L-14.6114 308.905L-14.6366 308.551L-15.7979 308.614L-14.2327 336.12L-13.0714 336.057L-13.1092 335.4L-9.83985 335.21L3.70464 334.44L3.61628 337.497L5.40874 337.548L6.35547 305.241L4.563 305.19L4.48726 307.818ZM-13.5763 312.164C-13.652 310.825 -12.6295 309.675 -11.2915 309.6L4.46202 308.69L4.32316 313.491L-11.0138 314.451C-12.3518 314.527 -13.5005 313.504 -13.5763 312.164ZM-13.1976 318.785C-13.2733 317.446 -12.2509 316.296 -10.9128 316.22L4.27267 315.26L4.12119 320.264L-10.6477 321.059C-11.9858 321.135 -13.1345 320.112 -13.2102 318.772L-13.1976 318.785ZM-10.269 327.692C-11.6071 327.768 -12.7558 326.745 -12.8315 325.406C-12.9073 324.066 -11.8848 322.917 -10.5468 322.841L4.0707 321.995L3.91923 327.036L-10.269 327.692ZM-9.89035 334.326C-11.2284 334.402 -12.3771 333.378 -12.4528 332.039C-12.5286 330.7 -11.5061 329.562 -10.1681 329.474L3.86873 328.843L3.72988 333.543L-9.89035 334.313L-9.89035 334.326Z" fill="url(#paint1_linear_2038_12099)"/>
</g>
<g opacity="0.7">
<path d="M4.43905 190.987L0.639534 191.126L0.058876 191.657L-24.1773 192.541C-24.1773 192.541 -26.967 193.135 -27.9768 193.172C-26.967 193.135 -24.1521 193.526 -24.1521 193.526L-24.1521 194.006L-24.5434 194.019L-26.9544 194.107L-27.3709 194.107L-43.8692 194.726L-44.2858 194.726L-45.8889 194.802L-46.3055 194.802L-61.39 195.37L-61.8065 195.37L-63.4096 195.446L-63.8262 195.446L-84.3386 196.204L-84.3891 194.738L-108.499 195.61C-108.499 195.61 -111.731 196.229 -112.892 196.266C-111.731 196.229 -108.461 196.608 -108.461 196.608L-108.461 197.088C-108.461 197.088 -116.893 202.508 -119.569 202.596L-128.456 202.925L-128.456 202.988C-128.456 202.988 -129.908 203.266 -130.425 203.278C-129.908 203.266 -128.431 203.43 -128.431 203.43C-128.431 203.43 -138.756 211.112 -147.29 211.427C-138.756 211.112 -127.901 218.036 -127.901 218.036C-127.901 218.036 -129.352 218.314 -129.87 218.326C-129.352 218.301 -127.875 218.478 -127.875 218.478L-127.875 218.566L-118.989 218.238C-116.388 218.15 -107.489 222.926 -107.489 222.926L-107.489 223.406C-107.489 223.406 -110.708 224.025 -111.869 224.063C-110.708 224.025 -107.439 224.404 -107.439 224.404L-83.3287 223.533L-83.3792 222.067L-62.8668 221.322L-62.4503 221.322L-60.8472 221.246L-60.418 221.246L-45.3335 220.678L-44.9169 220.678L-43.3138 220.602L-42.8972 220.602L-26.399 219.983L-25.9824 219.983L-23.5714 219.882L-23.1548 219.882L-23.1422 220.35C-23.1422 220.35 -25.9319 220.944 -26.9291 220.981C-25.9319 220.944 -23.1044 221.335 -23.1044 221.335L1.13183 220.451L1.80085 220.957L5.5625 220.818L4.47693 190.987L4.43905 190.987ZM0.765761 211.152L0.816254 212.618L-9.4715 212.997L-9.52198 211.531L0.765761 211.152ZM-9.93855 211.544L-9.88806 213.009L-12.2991 213.098L-12.3495 211.632L-9.93855 211.544ZM-12.7156 213.11L-23.4073 213.502L-23.4578 212.036L-12.7661 211.645L-12.7156 213.11ZM-85.1338 202.231L-87.4186 202.319L-87.7089 201.7L-87.4691 201.055L-85.1843 200.967L-85.1338 202.231ZM-63.2581 200.247L-63.3213 198.567L-61.7181 198.504L-61.655 200.184L-63.2581 200.247ZM-61.2258 200.171L-61.289 198.491L-46.2045 197.948L-46.1414 199.628L-61.2258 200.171ZM-45.4471 207.197L-45.5102 205.415L-43.9071 205.352L-43.844 207.134L-45.4471 207.197ZM-61.3521 208.371L-61.289 210.254L-62.8921 210.317L-62.9552 208.435L-61.3521 208.371ZM-45.8636 207.209L-60.9481 207.752L-61.0113 205.971L-45.9268 205.428L-45.8636 207.209ZM-61.3773 207.778L-62.9804 207.841L-63.0436 206.059L-61.4404 205.996L-61.3773 207.778ZM-26.6009 203.546L-26.6514 202.08L-24.2404 201.992L-24.1899 203.457L-26.6009 203.546ZM-27.0175 203.558L-43.5158 204.164L-43.5662 202.699L-27.068 202.105L-27.0175 203.571L-27.0175 203.558ZM-61.1122 203.33L-46.0277 202.787L-45.9772 204.253L-61.0617 204.796L-61.1122 203.33ZM-61.4783 204.808L-63.0814 204.872L-63.1319 203.406L-61.5288 203.343L-61.4783 204.808ZM-45.5986 202.762L-43.9954 202.699L-43.9449 204.164L-45.5481 204.228L-45.5986 202.762ZM-24.2657 201.398L-26.6767 201.486L-26.7272 200.122L-24.3162 200.033L-24.2657 201.398ZM-23.887 200.021L-13.1953 199.629L-13.1448 200.994L-23.8365 201.385L-23.887 200.021ZM-12.7156 200.981L-12.7661 199.616L-10.3551 199.528L-10.3046 200.893L-12.7156 200.981ZM-27.0806 201.499L-43.5789 202.092L-43.6294 200.728L-27.1311 200.134L-27.0806 201.499ZM-44.0081 202.118L-45.6112 202.181L-45.6617 200.816L-44.0585 200.753L-44.0081 202.118ZM-46.0404 202.193L-61.1249 202.736L-61.1754 201.372L-46.0908 200.829L-46.0404 202.193ZM-61.554 202.762L-63.1572 202.825L-63.2077 201.46L-61.6045 201.397L-61.554 202.762ZM-26.765 198.947L-26.8281 197.266L-24.4171 197.178L-24.354 198.858L-26.765 198.947ZM-27.1942 198.959L-43.6925 199.553L-43.7556 197.872L-27.2573 197.279L-27.1942 198.959ZM-44.1217 199.578L-45.7248 199.641L-45.7879 197.961L-44.1848 197.898L-44.1217 199.578ZM-63.6368 201.473L-63.5863 202.837L-80.8925 203.469L-80.943 202.104L-63.6368 201.473ZM-85.0833 203.507L-85.0328 204.77L-87.3302 204.858L-87.6206 204.239L-87.3807 203.595L-85.096 203.507L-85.0833 203.507ZM-80.8799 204.05L-63.5737 203.419L-63.5232 204.884L-80.8294 205.516L-80.8799 204.05ZM-84.995 206.021L-84.9445 207.284L-87.2419 207.373L-87.5322 206.754L-87.2924 206.109L-84.995 206.021ZM-80.7915 206.703L-63.4854 206.072L-63.4223 207.853L-80.7284 208.485L-80.7915 206.703ZM-84.9066 208.535L-84.8561 209.799L-87.1535 209.887L-87.4438 209.268L-87.204 208.624L-84.9066 208.535ZM-80.7032 209.079L-63.397 208.447L-63.3339 210.33L-80.64 210.961L-80.7032 209.079ZM-84.8183 211.05L-84.7678 212.313L-87.0651 212.401L-87.3555 211.782L-87.1156 211.138L-84.8183 211.05ZM-60.8724 210.254L-60.9355 208.371L-45.851 207.828L-45.7879 209.711L-60.8724 210.254ZM-45.6869 212.263L-60.7714 212.806L-60.8219 211.442L-45.7374 210.899L-45.6869 212.263ZM-45.3082 210.886L-43.7051 210.823L-43.6546 212.187L-45.2577 212.251L-45.3082 210.886ZM-61.188 212.831L-62.7911 212.895L-62.8416 211.53L-61.2385 211.467L-61.188 212.831ZM-26.399 209.016L-26.4621 207.134L-24.0511 207.045L-23.988 208.928L-26.399 209.016ZM-26.8281 209.029L-43.3264 209.623L-43.3895 207.74L-26.8913 207.146L-26.8281 209.029ZM-43.7556 209.648L-45.3587 209.711L-45.4218 207.828L-43.8187 207.765L-43.7556 209.648ZM-63.2708 211.543L-63.2203 212.907L-80.5264 213.539L-80.5769 212.174L-63.2708 211.543ZM-84.7173 213.576L-84.6668 214.84L-86.9642 214.928L-87.2545 214.309L-87.0147 213.665L-84.7173 213.576ZM-80.5138 214.12L-63.2077 213.488L-63.1572 214.954L-80.4633 215.585L-80.5138 214.12ZM-62.7785 213.476L-61.1754 213.413L-61.1249 214.878L-62.728 214.941L-62.7785 213.476ZM-60.7462 213.4L-45.6617 212.857L-45.6112 214.323L-60.6957 214.866L-60.7462 213.4ZM-45.2325 212.832L-43.6294 212.769L-43.5789 214.234L-45.182 214.297L-45.2325 212.832ZM-43.2002 212.756L-26.7019 212.162L-26.6514 213.628L-43.1497 214.234L-43.2002 212.769L-43.2002 212.756ZM-26.2727 212.137L-23.8617 212.049L-23.8112 213.514L-26.2222 213.603L-26.2727 212.137ZM0.715268 209.194L0.765761 210.558L-9.52198 210.937L-9.57249 209.573L0.715268 209.194ZM-9.98905 209.585L-9.93855 210.95L-12.3495 211.038L-12.4001 209.674L-9.98905 209.585ZM-12.8166 209.686L-12.7661 211.051L-23.4578 211.442L-23.5083 210.078L-12.8166 209.686ZM-23.9375 210.09L-23.887 211.455L-26.298 211.543L-26.3485 210.179L-23.9375 210.09ZM-26.7145 211.556L-43.2128 212.15L-43.2633 210.785L-26.765 210.191L-26.7145 211.556ZM0.601656 206.124L0.664775 208.006L-9.62297 208.385L-9.68609 206.502L0.601656 206.124ZM-10.1027 206.515L-10.0395 208.398L-12.4505 208.486L-12.5137 206.603L-10.1027 206.515ZM-12.8671 208.511L-23.5588 208.903L-23.6219 207.02L-12.9302 206.629L-12.8671 208.511ZM0.513295 203.761L0.576414 205.542L-9.71134 205.921L-9.77446 204.14L0.513295 203.761ZM-10.191 204.152L-10.1279 205.934L-12.5389 206.022L-12.602 204.241L-10.191 204.152ZM-13.0186 204.253L-12.9554 206.035L-23.6471 206.426L-23.7103 204.645L-13.0186 204.253ZM-24.1394 204.657L-24.0763 206.439L-26.4873 206.527L-26.5504 204.746L-24.1394 204.657ZM-26.9039 206.54L-43.4022 207.134L-43.4653 205.352L-26.967 204.759L-26.9039 206.54ZM0.412318 201.108L0.462811 202.573L-9.82494 202.952L-9.87545 201.486L0.412318 201.108ZM-10.292 201.499L-10.2415 202.965L-12.6525 203.053L-12.703 201.587L-10.292 201.499ZM-13.0691 203.066L-23.7608 203.457L-23.8112 201.992L-13.1196 201.6L-13.0691 203.066ZM-9.88806 200.88L-9.93855 199.515L0.349199 199.137L0.399693 200.501L-9.88806 200.88ZM0.185104 194.677L0.298707 197.949L-9.98905 198.328L-10.1027 195.055L0.185104 194.677ZM-10.5192 195.068L-10.4056 198.34L-12.8166 198.429L-12.9302 195.156L-10.5192 195.068ZM-13.3468 195.169L-13.2332 198.441L-23.9248 198.833L-24.0384 195.561L-13.3468 195.169ZM-81.0313 199.224L-63.7252 198.592L-63.6621 200.273L-80.9682 200.904L-81.0313 199.224ZM-107.035 203.039L-107.615 202.407L-107.085 201.775L-104.8 201.687L-104.75 202.95L-107.035 203.039ZM-125.098 206.21L-125.894 205.591L-125.149 204.959L-120.137 204.782L-120.087 206.046L-125.098 206.222L-125.098 206.21ZM-106.946 205.553L-107.527 204.921L-106.997 204.29L-104.712 204.201L-104.662 205.465L-106.946 205.553ZM-125.01 208.724L-125.805 208.105L-125.06 207.473L-120.049 207.296L-119.999 208.56L-125.01 208.737L-125.01 208.724ZM-106.858 208.067L-107.439 207.436L-106.909 206.804L-104.624 206.715L-104.573 207.979L-106.858 208.067ZM-124.922 211.238L-125.717 210.619L-124.972 209.987L-119.961 209.811L-119.91 211.074L-124.922 211.251L-124.922 211.238ZM-106.77 210.582L-107.35 209.95L-106.82 209.318L-104.535 209.23L-104.485 210.493L-106.77 210.582ZM-124.833 213.753L-125.628 213.134L-124.884 212.502L-119.872 212.325L-119.822 213.588L-124.833 213.765L-124.833 213.753ZM-106.681 213.096L-107.262 212.464L-106.732 211.832L-104.447 211.744L-104.397 213.008L-106.681 213.096ZM-124.745 216.267L-125.54 215.648L-124.795 215.016L-119.784 214.839L-119.734 216.103L-124.745 216.28L-124.745 216.267ZM-106.593 215.61L-107.174 214.979L-106.643 214.347L-104.359 214.258L-104.308 215.522L-106.593 215.61ZM-103.248 209.887C-103.387 205.907 -100.294 202.571 -96.3178 202.42C-92.3416 202.281 -89.0091 205.389 -88.8576 209.356C-88.7188 213.336 -91.8114 216.672 -95.7877 216.823C-99.7639 216.962 -103.096 213.867 -103.248 209.887ZM-106.492 218.125L-107.073 217.493L-106.542 216.861L-104.258 216.773L-104.207 218.036L-106.492 218.125ZM-86.8506 217.417L-87.1409 216.798L-86.901 216.154L-84.6037 216.066L-84.5532 217.329L-86.8506 217.417ZM-80.3245 218.656L-80.3876 216.773L-63.0814 216.142L-63.0183 218.024L-80.3245 218.656ZM-62.5891 218.012L-62.6523 216.129L-61.0491 216.066L-60.986 217.949L-62.5891 218.012ZM-60.5568 217.936L-60.62 216.053L-45.5355 215.51L-45.4723 217.393L-60.5568 217.936ZM-45.0432 217.368L-45.1063 215.485L-43.5031 215.422L-43.44 217.304L-45.0432 217.368ZM-43.0109 217.292L-43.0739 215.409L-26.5757 214.803L-26.5126 216.686L-43.0109 217.279L-43.0109 217.292ZM-26.0834 216.673L-26.1465 214.79L-23.7355 214.702L-23.6724 216.585L-26.0834 216.673ZM-23.1927 218.215L-23.3189 214.689L-12.6273 214.298L-12.501 217.823L-23.1927 218.215ZM-12.0718 217.81L-12.1981 214.285L-9.78708 214.197L-9.66084 217.722L-12.0718 217.81ZM-9.2443 217.709L-9.37052 214.184L0.917231 213.843L1.04347 217.343L-9.2443 217.722L-9.2443 217.709Z" fill="url(#paint2_linear_2038_12099)"/>
</g>
<g opacity="0.7">
<path d="M1.56133 187.601L4.08593 187.412L-1.79638 106.575L-4.32098 106.765L-4.29573 107.131L-15.606 107.952L-15.606 107.838L-16.073 107.876L-16.073 108.091L-16.4012 108.116L-16.4012 107.927L-17.2596 107.99L-17.2596 108.078L-28.898 108.925L-28.898 108.811L-29.3146 108.836L-29.2893 109.102L-29.6554 109.127L-29.6554 108.887L-30.6021 108.95L-30.6021 109.038L-42.3036 109.897L-42.3036 109.784L-42.695 109.809L-42.6697 110.074L-43.0989 110.099L-43.0989 109.859L-43.9699 109.923L-41.8997 138.325L-41.925 138.325L-41.8618 139.185L-41.8366 139.185L-41.7735 139.993L-40.9277 139.93L-40.9656 139.399L-28.1532 142.596L-27.7493 148.219L-27.7745 148.219L-27.7367 148.787L-30.2992 148.977L-29.9457 153.879L-26.8026 153.652L-26.4618 158.263L-32.647 158.718L-30.3875 189.799L1.57396 187.475L1.57396 187.601L1.56133 187.601ZM-22.3088 169.559L-22.0942 172.528L-23.6342 172.642C-24.5809 172.705 -25.4014 172.098 -25.4519 171.29C-25.515 170.468 -24.7955 169.748 -23.8488 169.685L-22.3088 169.571L-22.3088 169.559ZM-27.2065 166.362L-27.055 168.421L-29.8826 168.624L-30.0341 166.564L-27.2065 166.362ZM-21.4757 163.595L-16.7799 164.783L-19.153 164.947C-20.1629 165.023 -21.0591 164.454 -21.4757 163.595ZM-25.8558 149.545L-24.0508 149.987L-25.4645 150.089L-25.4898 149.672L-25.8432 149.697L-25.8432 149.545L-25.8558 149.545ZM-14.533 145.705L-14.4194 147.208L-26.4618 148.118L-26.5375 147.056L-26.1588 147.031L-26.1967 146.538L-14.533 145.692L-14.533 145.705ZM-28.6582 136.064L-28.5572 137.365L-40.6374 138.25L-40.7005 137.441L-40.3218 137.416L-40.3597 136.923L-28.6455 136.064L-28.6582 136.064ZM-15.3156 135.091L-15.1642 137.252L-21.2106 137.694C-22.5612 137.795 -23.5837 138.97 -23.4827 140.322C-23.3817 141.674 -22.2078 142.685 -20.8571 142.596L-14.8107 142.167L-14.6592 144.264L-26.3229 145.11L-26.3481 144.681L-26.7268 144.706L-27.3327 136.456L-26.9414 136.43L-26.9793 135.938L-15.3283 135.091L-15.3156 135.091ZM-29.3272 127.005L-29.2136 128.635L-35.2348 129.077C-36.5854 129.178 -37.6079 130.252 -37.5195 131.477C-37.4312 132.703 -36.2572 133.613 -34.9065 133.512L-28.8854 133.082L-28.7718 134.636L-40.4859 135.495L-40.5112 135.066L-40.8899 135.091L-41.3822 128.293L-41.0035 128.268L-41.0287 127.876L-29.3146 127.018L-29.3272 127.005ZM-15.9847 126.032L-15.8711 127.662L-21.9301 128.104C-23.2807 128.205 -24.3032 129.279 -24.2149 130.505C-24.1265 131.73 -22.9526 132.64 -21.6019 132.539L-15.5428 132.097L-15.4292 133.638L-27.0803 134.485L-27.1055 134.055L-27.4968 134.08L-27.9891 127.283L-27.5978 127.258L-27.6231 126.866L-15.972 126.02L-15.9847 126.032ZM-29.87 119.563L-29.7816 120.839L-35.7523 121.269C-37.103 121.37 -38.138 122.279 -38.0623 123.315C-37.9866 124.351 -36.8379 125.11 -35.4746 125.008L-29.5039 124.579L-29.4155 125.842L-41.1171 126.701L-41.1423 126.36L-41.521 126.386L-41.9376 120.738L-41.5589 120.713L-41.5841 120.422L-29.87 119.563ZM-16.5274 118.59L-16.4391 119.867L-22.4476 120.309C-23.7983 120.41 -24.8334 121.319 -24.7576 122.355C-24.6819 123.391 -23.5206 124.137 -22.1699 124.049L-16.1614 123.619L-16.073 124.882L-27.7241 125.729L-27.7493 125.388L-28.1406 125.413L-28.5572 119.765L-28.1659 119.74L-28.1911 119.449L-16.5401 118.603L-16.5274 118.59ZM-30.2992 113.776L-30.236 114.673L-36.2572 115.116C-37.6079 115.217 -38.6556 115.987 -38.5925 116.859C-38.5294 117.718 -37.3807 118.337 -36.03 118.236L-30.0088 117.807L-29.9457 118.704L-41.6599 119.563L-41.6599 119.31L-42.0512 119.335L-42.3794 114.85L-42.0007 114.825L-42.0007 114.648L-30.2992 113.789L-30.2992 113.776ZM-16.9566 112.804L-16.8935 113.701L-22.9526 114.143C-24.3032 114.244 -25.3509 115.015 -25.2878 115.886C-25.2247 116.746 -24.076 117.365 -22.7253 117.264L-16.6663 116.822L-16.6032 117.719L-28.2542 118.565L-28.2542 118.312L-28.6708 118.338L-28.999 113.852L-28.6077 113.827L-28.6077 113.65L-16.9693 112.804L-16.9566 112.804ZM-30.6147 109.443L-30.5642 110.049L-36.5854 110.491C-37.9361 110.592 -38.9964 111.237 -38.9459 111.944C-38.8954 112.652 -37.7594 113.132 -36.4087 113.031L-30.3875 112.601L-30.337 113.258L-42.0512 114.117L-42.0512 113.966L-42.4425 113.991L-42.695 110.466L-42.3163 110.441L-42.3163 110.314L-30.6147 109.455L-30.6147 109.443ZM-17.2722 108.47L-17.2217 109.076L-23.2555 109.519C-24.6062 109.62 -25.6665 110.264 -25.616 110.972C-25.5655 111.679 -24.4294 112.159 -23.0788 112.058L-17.045 111.629L-16.9945 112.273L-28.6455 113.119L-28.6455 112.968L-29.0495 112.993L-29.3019 109.481L-28.9106 109.455L-28.9106 109.329L-17.2722 108.483L-17.2722 108.47ZM-15.3409 112.159L-15.3409 112.008L-15.7322 112.033L-15.9847 108.508L-15.606 108.508L-15.606 108.356L-4.29573 107.535L-4.24525 108.154L-9.91299 108.571C-11.2637 108.672 -12.324 109.317 -12.2735 110.024C-12.223 110.719 -11.0869 111.212 -9.73627 111.111L-4.06853 110.707L-4.01804 111.351L-15.3283 112.172L-15.3409 112.159ZM-14.9496 117.618L-14.9496 117.365L-15.3535 117.39L-15.6817 112.905L-15.303 112.88L-15.303 112.703L-4.00541 111.882L-3.9423 112.779L-9.61003 113.196C-10.9607 113.297 -12.0084 114.067 -11.9453 114.939C-11.8822 115.798 -10.7335 116.417 -9.38283 116.316L-3.71509 115.912L-3.65197 116.809L-14.9622 117.63L-14.9496 117.618ZM-14.3563 124.756L-14.3815 124.415L-14.836 124.453L-15.2525 118.805L-14.8738 118.78L-14.8991 118.489L-3.58886 117.668L-3.5005 118.944L-9.16822 119.361C-10.5189 119.462 -11.554 120.372 -11.4782 121.408C-11.4025 122.444 -10.2412 123.19 -8.89051 123.101L-3.22279 122.697L-3.13443 123.96L-14.3815 124.781L-14.3563 124.756ZM-13.7882 133.537L-13.8261 133.108L-14.2048 133.133L-14.6971 126.336L-14.2427 126.298L-14.2679 125.906L-3.02082 125.085L-2.90721 126.715L-8.57494 127.132C-9.9256 127.233 -10.9481 128.307 -10.8597 129.532C-10.7714 130.758 -9.59741 131.667 -8.24674 131.566L-2.57901 131.162L-2.4654 132.704L-13.7756 133.525L-13.7882 133.537ZM-13.0182 144.176L-13.0435 143.746L-13.4222 143.784L-14.0281 135.496L-13.6494 135.47L-13.6873 134.978L-2.37704 134.157L-2.22557 136.317L-7.84282 136.721C-9.19348 136.822 -10.2159 137.997 -10.1149 139.349C-10.014 140.701 -8.84004 141.712 -7.48938 141.624L-1.87213 141.219L-1.72065 143.342L-13.0309 144.163L-13.0182 144.176ZM-1.00114 153.096L-12.7027 153.917L-13.2707 146.147L-12.892 146.109L-12.9299 145.616L-1.61966 144.795L-1.49343 146.577L-7.16117 146.993C-8.51183 147.094 -9.5343 148.269 -9.43331 149.621C-9.33233 150.973 -8.15839 151.997 -6.80772 151.896L-1.13999 151.491L-1.02638 153.096L-1.00114 153.096ZM-22.1699 155.041C-22.0689 156.381 -20.9202 157.379 -19.5822 157.278L-13.6368 156.848L-13.5484 158.011L-24.8713 158.832L-24.8965 158.415L-25.2499 158.44L-25.717 152.047L-25.3636 152.022L-25.4014 151.542L-19.6327 151.125L-15.5428 152.136L-19.9356 152.451C-21.2611 152.552 -22.2709 153.702 -22.1699 155.041ZM-11.7559 160.348L-11.7812 159.931L-12.1346 159.956L-12.4755 155.193L-9.01675 156.065C-9.042 156.229 -9.04199 156.394 -9.02937 156.558C-8.92838 157.897 -7.7797 158.895 -6.44166 158.794L-0.597202 158.377L-0.508841 159.527L-11.7307 160.348L-11.7559 160.348ZM-25.0354 161.523L-25.0858 160.765L-24.7324 160.74L-24.7703 160.259L-13.4474 159.438L-13.3591 160.576L-25.0354 161.536L-25.0354 161.523ZM-11.1248 169.066L-11.15 168.649L-11.5035 168.674L-11.9705 162.281L-11.6171 162.256L-11.655 161.776L-0.433106 160.955L-0.33212 162.256L-6.17657 162.686C-7.50199 162.787 -8.51184 163.936 -8.41085 165.276C-8.30987 166.602 -7.16117 167.613 -5.82313 167.512L0.0213225 167.095L0.109683 168.245L-11.1122 169.066L-11.1248 169.066ZM-11.2889 171.757L-11.3394 170.999L-10.9859 170.974L-11.0238 170.494L0.198044 169.673L0.286405 170.81L-11.2889 171.745L-11.2889 171.757ZM-12.6774 172.452L-18.6229 172.882C-19.9483 172.983 -21.097 172.124 -21.1853 170.974C-21.2737 169.824 -20.2512 168.813 -18.9258 168.712L-12.9804 168.283L-12.6774 172.452ZM-29.3777 176.343L-29.5165 174.486L-26.689 174.284L-26.5501 176.141L-29.3777 176.343ZM0.803952 177.822L-5.1415 178.252C-6.46691 178.353 -7.60298 177.721 -7.6661 176.849C-7.72921 175.977 -6.70674 175.194 -5.3687 175.106L-3.39951 174.967L0.677724 176.003L0.816578 177.835L0.803952 177.822ZM-12.2104 178.77L-18.1558 179.199C-19.4812 179.3 -20.6173 178.668 -20.6804 177.797C-20.7435 176.925 -19.7211 176.141 -18.383 176.04L-12.4376 175.611L-12.2104 178.77ZM-28.9611 182.016L-29.0621 180.614L-26.2345 180.412L-26.1336 181.814L-28.9611 182.016ZM1.17002 182.914L-4.77542 183.343C-6.10083 183.445 -7.22428 182.99 -7.27477 182.333C-7.32526 181.676 -6.27756 181.069 -4.95214 180.968L0.9933 180.539L1.17002 182.927L1.17002 182.914ZM-11.8443 183.861L-17.7897 184.291C-19.1152 184.392 -20.2386 183.937 -20.2891 183.28C-20.3396 182.623 -19.2919 182.017 -17.9665 181.915L-12.021 181.486L-11.8443 183.874L-11.8443 183.861ZM-28.6329 186.577L-28.696 185.756L-25.8685 185.554L-25.8054 186.375L-28.6329 186.577ZM1.42248 186.426L-4.52296 186.856C-5.84838 186.957 -6.9592 186.742 -6.98445 186.376C-7.00969 186.009 -5.94936 185.643 -4.62395 185.542L1.3215 185.112L1.42248 186.414L1.42248 186.426ZM-11.5919 187.374L-17.5373 187.803C-18.8627 187.904 -19.9735 187.689 -19.9988 187.323C-20.024 186.957 -18.9637 186.59 -17.6383 186.489L-11.6928 186.06L-11.5919 187.361L-11.5919 187.374ZM-21.0212 188.056L-22.5612 188.17C-23.508 188.233 -24.2906 188.005 -24.3285 187.639C-24.3537 187.272 -23.609 186.931 -22.6622 186.856L-21.1222 186.742L-21.0212 188.043L-21.0212 188.056ZM-28.431 189.42L-28.4562 189.016L-25.6286 188.814L-25.6034 189.218L-28.431 189.42Z" fill="url(#paint3_linear_2038_12099)"/>
</g>
<g opacity="0.7">
<path d="M5.05389 341.386L-0.4375 341.019L-5.12702 411.06L0.364366 411.427L5.05389 341.386Z" fill="url(#paint4_linear_2038_12099)"/>
</g>
<path opacity="0.3" d="M-152.656 -0.00585534L-152.656 568.555L-22.3737 568.558C-22.3737 568.558 6.83592 435.149 6.83593 284.012C6.83593 93.3548 -17.1099 -0.00336894 -17.1099 -0.00336894L-152.656 -0.00585534Z" fill="url(#paint5_linear_2038_12099)"/>
<path d="M27.2851 70.7926L27.4114 71.6896L28.9766 71.4749L28.6863 69.4407C29.3553 68.9858 30.0117 68.5563 30.6681 68.1267L30.8953 69.7313L31.9304 69.5797L31.6401 67.495C39.5799 62.4665 46.1439 59.5607 46.1439 59.5607L50.5115 57.893L50.6882 59.1312L51.799 58.9796L51.5339 57.0591C51.5339 57.0591 73.6747 49.6429 93.9599 44.2862L94.2124 46.1056L95.5378 45.9161L95.3484 44.5768L98.8198 44.0841L98.5925 42.4416L116.113 39.2959L98.3906 40.976L98.1507 39.2577L94.6794 39.7503L94.5279 38.6132L93.2025 38.8027L93.4423 40.5463C91.1071 40.6221 88.7466 40.6852 86.3861 40.7104L86.3608 40.7104C67.6283 40.9754 49.1608 39.9517 49.1482 39.9517L48.9084 38.2081L47.7975 38.3597L47.9743 39.5979L43.329 39.2187C43.329 39.2187 36.2222 38.2457 27.2094 35.5923L26.9443 33.6971L25.9092 33.836L26.1112 35.2511C25.3664 35.0237 24.6091 34.7836 23.8517 34.5309L23.5866 32.6104L22.0213 32.8252L22.1602 33.7981L-13.4746 17.5113L-11.1014 34.4292C-11.1014 34.4292 13.5639 33.5958 16.3536 53.4576C19.1433 73.3193 -4.80258 79.3077 -4.80258 79.3077L-2.42945 96.2257L27.3482 70.7673L27.2851 70.7926ZM88.4184 43.6038L89.1127 44.1092L88.633 44.8926L87.9261 44.324L88.2543 43.6291L88.4058 43.6038L88.4184 43.6038ZM89.0622 43.5154L89.5292 43.4522L89.3651 43.7302L89.0748 43.5154L89.0622 43.5154ZM90.0973 43.3638L90.2613 43.3385L90.943 43.7807L90.4381 44.5009L89.7059 43.9702L90.0846 43.3511L90.0973 43.3638ZM90.943 43.2501L91.3722 43.1869L91.2081 43.427L90.943 43.2501ZM90.8294 42.3657L91.0314 42.1382L91.2459 42.3151L90.8294 42.3783L90.8294 42.3657ZM90.1477 42.4667L89.9584 42.492L89.4282 42.0119L89.9836 41.3043L90.6653 41.8603L90.1351 42.4667L90.1477 42.4667ZM89.3904 42.5678L88.9359 42.631L89.1505 42.353L89.3777 42.5678L89.3904 42.5678ZM87.5726 44.0334L87.2444 43.768L87.7241 43.7049L87.5726 44.0334ZM86.6385 43.8565L87.3707 44.4503L86.9036 45.4232L85.8938 44.7662L86.588 43.8565L86.6385 43.8565ZM85.5151 44.5261L84.8587 44.0965L85.9569 43.9449L85.5151 44.5261ZM56.5327 48.0759L56.5958 48.0759L58.9941 50.2618L57.29 54.0016L54.7654 51.5504L56.5453 48.0759L56.5327 48.0759ZM54.4246 51.2219L51.8495 48.7328L56.0025 48.1517L54.4246 51.2219ZM57.1638 47.9875L60.2186 47.558L59.1835 49.8322L57.1638 47.9875ZM60.7487 47.4822L60.8371 47.4822L63.5132 49.8575L62.1247 52.5234L59.5243 50.1481L60.7361 47.4822L60.7487 47.4822ZM61.4178 47.3937L65.0784 46.8758L63.7278 49.4532L61.4178 47.3937ZM65.6212 46.8L65.697 46.8L67.7293 48.4678L65.9116 51.399L64.0686 49.7565L65.6086 46.8L65.6212 46.8ZM66.3029 46.6989L69.0799 46.3073L67.9817 48.0761L66.3029 46.6989ZM69.648 46.2315L69.7363 46.2315L71.5036 47.8614L70.3801 50.0598L68.3225 48.3667L69.648 46.2315ZM70.3044 46.1431L72.5386 45.8272L71.7055 47.4571L70.3044 46.1431ZM73.0688 45.7767L74.6593 47.1918L73.5106 49.1502L72.0337 47.773L73.0562 45.7767L73.0688 45.7767ZM73.6368 45.6756L75.7196 45.3851L74.8991 46.7875L73.6368 45.6756ZM76.275 45.3219L77.4995 46.4591L76.5149 48.2279L75.24 47.1034L76.275 45.3345L76.275 45.3219ZM76.8305 45.2335L78.2947 45.0313L77.7267 46.0547L76.8305 45.2335ZM78.8501 44.9555L79.0016 44.9303L80.2134 45.9158L79.2667 47.4825L78.0675 46.3706L78.8628 44.9555L78.8501 44.9555ZM79.6075 44.8545L80.9708 44.665L80.4406 45.5368L79.6075 44.8545ZM81.5515 44.5766L81.6525 44.5766L82.7507 45.4736L81.9807 46.775L80.7941 45.8147L81.5388 44.5766L81.5515 44.5766ZM82.2584 44.4755L83.4449 44.3113L82.9779 45.082L82.2457 44.4755L82.2584 44.4755ZM84.013 44.2228L84.1771 44.1976L85.2374 44.8799L84.2654 46.1559L83.3187 45.3726L84.0003 44.2228L84.013 44.2228ZM82.1447 43.5784L82.6749 42.7951L83.3187 43.4016L82.1447 43.5658L82.1447 43.5784ZM81.5515 43.6669L81.4379 43.6669L80.3902 42.7066L81.2611 41.4558L82.3593 42.4918L81.5641 43.6669L81.5515 43.6669ZM80.8572 43.7679L79.5065 43.9574L80.1124 43.0856L80.8572 43.7679ZM78.9006 44.0459L78.7365 44.0711L77.5878 42.934L78.4336 41.5442L79.7842 42.795L78.9006 44.0585L78.9006 44.0459ZM78.1811 44.1469L76.7295 44.349L77.348 43.313L78.1811 44.1343L78.1811 44.1469ZM76.1614 44.4248L74.6719 43.0097L75.5934 41.5694L77.0198 42.9971L76.1488 44.4248L76.1614 44.4248ZM75.5934 44.5133L73.5232 44.8038L74.4195 43.3888L75.5934 44.5133ZM72.9552 44.867L71.4278 43.2245L72.4629 41.4935L74.1039 43.0603L72.9552 44.8544L72.9552 44.867ZM72.425 44.9554L70.2034 45.2713L71.188 43.6288L72.425 44.9554ZM69.6227 45.3471L69.5217 45.347L67.6662 43.6792L69.1683 41.4935L70.8598 43.3003L69.6227 45.3597L69.6227 45.3471ZM68.9411 45.4481L66.1893 45.8397L67.4137 44.0583L68.9411 45.4481ZM65.5834 45.9155L65.495 45.9155L63.2102 43.5149L64.5356 41.4302L67.0855 43.755L65.596 45.9282L65.5834 45.9155ZM64.9396 46.004L61.2915 46.5219L62.9452 43.9066L64.9396 46.004ZM60.7109 46.5977L60.6099 46.5977L58.7164 44.3866L60.5594 41.3796L62.6296 43.5654L60.7109 46.5977ZM60.0797 46.6862L57.0376 47.1157L58.464 44.7909L60.0797 46.6862ZM56.4569 47.1915L56.3938 47.1915L53.7303 44.3613L55.4849 41.3163L58.1484 44.4371L56.4569 47.1915ZM55.851 47.2799L51.7107 47.861L53.4905 44.7656L55.8384 47.2799L55.851 47.2799ZM51.1552 47.9368L51.0921 47.9368L50.1454 41.1646L53.1876 44.4118L51.1552 47.9242L51.1552 47.9368ZM51.2689 48.8213L54.1974 51.6515L52.1651 55.6187L51.2184 48.8339L51.2815 48.8339L51.2689 48.8213ZM54.5256 51.9674L57.0881 54.4564C54.7528 55.1892 53.1371 55.6946 52.5059 55.8967L54.513 51.9674L54.5256 51.9674ZM59.3223 50.5776L61.9353 52.9656C60.3448 53.4457 58.8932 53.9005 57.6309 54.2922L59.3223 50.5776ZM63.854 50.1734L65.7096 51.8286C64.5861 52.1697 63.5006 52.4982 62.4781 52.8014L63.854 50.1734ZM68.0827 48.7584L70.1908 50.4894C68.8401 50.881 67.5399 51.2727 66.2902 51.6517L68.0827 48.7584ZM71.8444 48.1899L73.3339 49.5797C72.4503 49.8324 71.5919 50.0851 70.7462 50.3378L71.8444 48.1899ZM75.0127 47.495L76.376 48.6954C75.5429 48.9354 74.7098 49.1755 73.8893 49.4155L75.0127 47.495ZM77.8403 46.7749L79.09 47.9373C78.3326 48.1521 77.5878 48.3669 76.8431 48.569L77.8403 46.7749ZM80.5669 46.1938L81.7787 47.1793C81.0465 47.3814 80.327 47.5836 79.5949 47.7857L80.5669 46.1938ZM83.1041 45.7642L84.0508 46.5602C83.4828 46.7119 82.9148 46.8761 82.3593 47.0277L83.1041 45.7642ZM85.6287 45.1326L86.7143 45.8401C86.0326 46.0296 85.351 46.2065 84.6694 46.396L85.6287 45.1452L85.6287 45.1326ZM87.7367 44.7409L88.5067 45.36C88.1028 45.4611 87.6989 45.5748 87.2949 45.6885L87.7367 44.7409ZM89.4787 44.3745L90.2235 44.9052C89.7943 45.0189 89.3777 45.12 88.9612 45.2337L89.4913 44.3745L89.4787 44.3745ZM91.3217 44.0334L91.9655 44.4504C91.5868 44.5515 91.2081 44.6399 90.8294 44.741L91.3217 44.0334ZM91.5741 43.667L91.9655 43.0985L92.0664 43.0985L92.2053 44.0714L91.5741 43.6544L91.5741 43.667ZM91.8392 42.2141L91.3091 41.7845L91.8014 41.2159L91.9402 42.2014L91.8266 42.2014L91.8392 42.2141ZM90.9682 41.5191L90.5012 41.1401C90.7789 41.1401 91.044 41.1148 91.3217 41.1148L90.9682 41.5191ZM89.1 41.7086L88.5572 41.2159C88.8728 41.2159 89.201 41.1906 89.5166 41.1906L89.1 41.7213L89.1 41.7086ZM88.8223 42.0624L88.2922 42.732L88.1281 42.7573L87.6231 42.1887L88.1407 41.4433L88.8223 42.0624ZM87.5979 42.8331L87.1308 42.8962L87.3707 42.5677L87.6105 42.8331L87.5979 42.8331ZM86.5123 42.9847L86.4492 42.9847L85.5403 42.315L86.3356 41.4053L87.0551 42.214L86.5123 42.9847ZM85.818 43.0857L84.7325 43.2373L85.25 42.6561L85.8307 43.0857L85.818 43.0857ZM84.0508 43.3384L83.8741 43.3637L82.9148 42.454L83.609 41.4306L84.8966 42.3908L84.0634 43.3384L84.0508 43.3384ZM82.5866 42.1381L81.7787 41.38C82.2205 41.38 82.6749 41.3674 83.1167 41.3547L82.5866 42.1381ZM80.0367 42.416L78.9385 41.4052C79.5444 41.4052 80.1503 41.4052 80.7562 41.38L80.0367 42.416ZM77.2596 42.6055L76.0731 41.4178C76.7042 41.4178 77.348 41.4178 77.9918 41.4178L77.2596 42.6181L77.2596 42.6055ZM74.3437 42.6939L73.0183 41.4177C73.7252 41.4177 74.4321 41.4177 75.1642 41.4178L74.3563 42.6939L74.3437 42.6939ZM71.0996 42.896L69.6985 41.405C70.4432 41.405 71.2132 41.4051 71.9832 41.4177L71.087 42.896L71.0996 42.896ZM67.338 43.376L65.1037 41.3418C66.265 41.3544 67.4642 41.3797 68.7012 41.3924L67.338 43.376ZM62.882 43.1864L61.0643 41.2785C62.011 41.3038 63.0083 41.3165 64.056 41.3291L62.882 43.1864ZM58.4135 44.0455L55.9394 41.1521C57.1764 41.19 58.5776 41.2279 60.1176 41.2659L58.4009 44.0455L58.4135 44.0455ZM53.4274 44.0327L50.5746 40.9751C51.2941 41.0004 52.872 41.0636 55.1062 41.1268L53.44 44.0201L53.4274 44.0327ZM87.7494 41.2537L87.3328 41.8602L86.8279 41.279C87.1435 41.279 87.4464 41.2664 87.762 41.2537L87.7494 41.2537ZM85.1869 42.0623L84.2275 41.3421C84.7703 41.3421 85.3131 41.3169 85.8433 41.3042L85.1869 42.0623ZM33.8996 59.5225L32.1829 64.5637L31.1225 56.9829L33.9122 59.5352L33.8996 59.5225ZM31.5138 56.1237L35.4901 54.873L34.2152 58.6002L31.5138 56.1237ZM34.9347 59.2572L36.197 55.5553L38.4944 58.0064L37.4719 61.582L34.9473 59.2699L34.9347 59.2572ZM39.4916 57.7538L40.4888 54.2792L42.256 56.364L41.2336 59.6111L39.4916 57.7538ZM43.2659 56.1619L44.2378 53.0917L45.8157 55.0248L44.8564 58.0445L43.2532 56.1619L43.2659 56.1619ZM46.4974 55.8587L47.9995 57.6908C47.2042 57.9687 46.4216 58.2719 45.639 58.5878L46.4974 55.8587ZM46.8256 54.8353L47.6839 52.1062L48.3277 56.68L46.8256 54.8353ZM46.1439 54.0014L44.5282 52.0177L47.0275 51.2344L46.1565 54.0014L46.1439 54.0014ZM42.5842 55.3532L40.7665 53.2053L43.5436 52.3336L42.5842 55.3532ZM38.7847 56.9957L36.4999 54.5571L39.7945 53.5212L38.7973 56.9957L38.7847 56.9957ZM32.915 65.1576L34.6191 60.1795L37.2826 62.6181C35.2755 63.7173 33.7229 64.6648 32.915 65.1576ZM38.2419 62.0875L39.2013 58.7519L41.0063 60.6724C40.0344 61.1525 39.1129 61.6326 38.2419 62.0875ZM44.5282 59.0426C43.6572 59.4216 42.7988 59.8007 41.9783 60.205L42.9377 57.1726L44.5282 59.0426ZM32.0945 43.527L34.3414 46.7615L30.1758 46.6477L32.0945 43.527ZM44.6544 42.7818L43.0639 40.3938C43.9096 40.4822 44.7554 40.558 45.5885 40.6086L44.6544 42.7818ZM46.1818 41.493L46.8256 46.0668L45.2477 43.6788L46.1944 41.493L46.1818 41.493ZM44.2252 43.7672L43.2406 46.0667L41.4608 43.3882L42.4832 41.1392L44.2252 43.7799L44.2252 43.7672ZM39.3149 45.953L37.3962 42.8953L38.5575 40.6337L40.4383 43.4639L39.3149 45.953ZM34.8337 45.915L32.5994 42.7057L34.3919 39.7871L36.3611 42.9459L34.8337 45.9276L34.8337 45.915ZM29.5573 45.9528L28.4969 38.372L31.5391 42.7436L29.5573 45.9654L29.5573 45.9528ZM36.9291 43.8177L38.8478 46.8879L35.4017 46.7994L36.9291 43.8177ZM41.0316 44.3484L42.7862 46.9891L39.8703 46.9132L41.0316 44.3484ZM44.8311 44.6643L46.4342 47.0776L43.8213 47.0144L44.8311 44.6643ZM41.9026 40.2548L40.8927 42.4911L39.1381 39.8378C40.047 39.9894 40.9685 40.1284 41.9152 40.2421L41.9026 40.2548ZM38.0652 39.6609L36.866 41.9983L35.023 39.0543C35.9824 39.2565 37.0048 39.4713 38.0652 39.6609ZM33.9501 38.8143L32.0566 41.8845L29.0523 37.5633C29.9612 37.8287 31.7158 38.2962 33.9501 38.8016L33.9501 38.8143ZM44.5787 48.4926L44.8311 50.3373L29.8728 54.9992L28.9135 48.1386L44.5787 48.48L44.5787 48.4926ZM27.8658 48.1259L28.8756 55.3277L26.8054 55.972L25.6946 48.0753L27.8658 48.1259ZM-0.106815 92.4858L2.51877 84.6903L6.01535 87.192L-0.106815 92.4732L-0.106815 92.4858ZM2.80909 83.8058L4.96764 77.4001L6.20469 86.2444L2.80909 83.8058ZM5.73765 76.4778L9.38569 78.6889L6.96207 85.2463L5.73765 76.4778ZM7.75733 85.6885L10.1683 79.1564L13.1978 80.9885L7.75733 85.6759L7.75733 85.6885ZM10.4839 78.2973L12.39 73.1171L13.3619 80.0409L10.4839 78.2973ZM13.16 72.1695L15.8108 74.0647L14.1319 79.068L13.16 72.1695ZM14.9398 79.485L16.5808 74.6207L18.7646 76.1874L14.9398 79.485ZM16.8711 73.7362L18.2344 69.6805L19.0171 75.2651L16.8711 73.7236L16.8711 73.7362ZM23.7633 64.2224L19.6103 66.4966L21.1882 60.4446L23.7759 64.2225L23.7633 64.2224ZM21.4785 59.3075L22.804 54.2031L24.041 63.0601L21.4659 59.3075L21.4785 59.3075ZM23.7002 65.2838L22.2233 68.9857L19.5346 67.5579L23.7002 65.2711L23.7002 65.2838ZM24.445 65.8397L25.1013 70.5146L23.0185 69.4153L24.445 65.8397ZM21.8951 69.8196L20.0648 74.3933L19.219 68.4044L21.8825 69.8196L21.8951 69.8196ZM24.811 71.3611L20.9231 74.6713L22.6903 70.2365L24.811 71.3611ZM14.9777 38.0685L14.1572 32.2312L17.1993 36.0596L14.9777 38.0685ZM20.0774 34.6698L20.6833 39.0162L18.4238 36.1607L20.0774 34.6698ZM17.7548 36.7671L20.0774 39.6984L15.6215 38.6876L17.7548 36.7671ZM20.4939 40.7092L19.0423 45.2577L15.8234 39.6605L20.4813 40.7092L20.4939 40.7092ZM21.0746 41.8337L22.3622 51.0192L19.6482 46.3064L21.0746 41.8337ZM19.5598 33.937L17.8684 35.4658L14.9398 31.7764L19.5598 33.9244L19.5598 33.937ZM13.6901 37.2598L11.2665 33.7473L12.9075 31.6753L13.6901 37.2598ZM8.1234 36.2616L7.15142 29.363L10.1431 33.7094L8.11077 36.2616L8.1234 36.2616ZM12.4026 30.8666L10.7364 32.9766L7.82044 28.7566L12.4026 30.8793L12.4026 30.8666ZM7.12618 35.554L3.86944 31.1065L6.1542 28.6302L7.12618 35.554ZM-0.182549 34.1641L-1.40698 25.3956L2.72074 31.0307L-0.182549 34.1641ZM5.73765 27.771L3.32665 30.3737L-0.78846 24.7638L5.72502 27.7837L5.73765 27.771ZM-1.17976 33.4944L-5.01717 27.9224L-2.41682 24.6501L-1.17976 33.4944ZM-2.87125 23.7783L-5.54733 27.1517L-10.2052 20.3794L-2.87125 23.7783ZM-10.8616 20.9985L-6.128 27.8845L-9.33424 31.9276C-9.62457 29.8807 -10.5208 23.4749 -10.8616 20.9985ZM-8.76621 32.6604L-5.5852 28.6552L-1.60896 34.4294L-8.76621 32.6604ZM0.347617 34.9095L3.26353 31.7635L6.70962 36.4763L0.347617 34.9095ZM10.6985 34.4675L13.1852 38.0811L8.70405 36.9818L10.6985 34.4675ZM7.97192 38.3084L10.4208 38.877L10.1305 39.9383C9.48668 39.3824 8.76717 38.8264 7.97192 38.3084ZM10.8752 40.6206L11.3044 39.0918L13.5639 39.6099L11.8724 41.6314C11.5695 41.3029 11.2413 40.9617 10.8878 40.6206L10.8752 40.6206ZM12.4531 42.3137L14.1193 40.3301L14.4854 42.9707L13.2483 43.3497C13.0085 43.0212 12.7434 42.6675 12.4531 42.3137ZM13.7785 44.1205L14.6116 43.8678L14.9524 46.3442C14.9524 46.3442 14.6116 45.4345 13.7659 44.1331L13.7785 44.1205ZM15.3185 40.5701L18.6762 46.4074L16.909 51.9414L15.3185 40.5575L15.3185 40.5701ZM17.5528 52.889L19.2821 47.4688L22.034 52.2574L17.5528 52.889ZM22.1476 53.1544L20.7969 58.322L17.679 53.7734L22.1349 53.1418L22.1476 53.1544ZM20.5066 59.4717L18.853 65.8017L17.3129 54.8095L20.5066 59.4717ZM16.3915 62.7946C16.8459 61.3037 16.9216 60.3435 16.9216 60.3435L17.2625 62.8199L16.3915 62.8199L16.3915 62.7946ZM16.0885 63.6664L17.3887 63.6917L17.7548 66.3323L15.5962 64.8793C15.7856 64.4497 15.937 64.0454 16.0759 63.6664L16.0885 63.6664ZM15.2175 65.7005L17.4013 67.1788L15.369 68.3033L14.5359 66.9387C14.7883 66.5218 15.0156 66.1049 15.2049 65.7005L15.2175 65.7005ZM14.0183 67.7853L14.599 68.7329L12.39 69.9584C13.0211 69.2256 13.5513 68.5054 14.0183 67.7853ZM17.5023 68.9982L16.1011 73.155L13.5008 71.2851L17.5023 68.9856L17.5023 68.9982ZM11.7083 72.3211L9.68865 77.8045L6.02797 75.5807L11.7083 72.3211ZM4.26075 76.5915L2.02648 83.2373L-2.1265 80.2554L4.26075 76.5915ZM-2.46731 81.1146L1.72353 84.1217L-0.939929 92.0436C-1.28075 89.5672 -2.18961 83.1487 -2.46731 81.1146Z" fill="#E57368"/>
<path d="M55.1455 231.908L55.1455 231.579L54.7036 231.579L49.7302 231.617L50.1972 295.953L55.1707 295.915L55.6125 295.915L55.6125 295.549L59.7655 295.524L59.7655 297.621L60.4219 297.621L59.9296 230.051L59.2858 230.051L59.2984 231.883L55.1455 231.908ZM59.7528 292.984L55.5999 293.009L55.5999 292.428L59.7528 292.403L59.7528 292.984ZM59.7528 291.582L55.5999 291.607L55.5999 291.026L59.7528 291.001L59.7528 291.582ZM59.7024 284.936L55.5494 284.961L55.5494 284.38L59.7024 284.355L59.7024 284.936ZM59.7024 283.533L55.5368 283.559L55.5368 282.977L59.6897 282.952L59.6897 283.533L59.7024 283.533ZM59.6519 276.888L55.4989 276.913L55.4989 276.332L59.6519 276.306L59.6519 276.888ZM59.6519 275.485L55.4989 275.51L55.4989 274.929L59.6519 274.904L59.6519 275.485ZM59.6014 268.839L55.4484 268.864L55.4484 268.283L59.6014 268.258L59.6014 268.839ZM59.6014 267.437L55.4484 267.462L55.4484 266.881L59.6014 266.856L59.6014 267.437ZM59.5509 260.791L55.3979 260.816L55.3979 260.235L59.5509 260.21L59.5509 260.791ZM59.5509 259.389L55.3979 259.414L55.3979 258.833L59.5509 258.807L59.5509 259.376L59.5509 259.389ZM59.5004 252.743L55.3474 252.768L55.3474 252.199L59.5004 252.174L59.5004 252.755L59.5004 252.743ZM59.5004 251.34L55.3348 251.365L55.3348 250.784L59.4878 250.759L59.4878 251.34L59.5004 251.34ZM59.4499 244.694L55.2969 244.72L55.2969 244.138L59.4499 244.113L59.4499 244.694ZM59.4499 243.292L55.2969 243.317L55.2969 242.736L59.4499 242.711L59.4499 243.292ZM59.3994 236.646L55.2464 236.671L55.2464 236.103L59.3994 236.078L59.3994 236.659L59.3994 236.646ZM59.3994 235.244L55.2464 235.269L55.2464 234.688L59.3994 234.662L59.3994 235.244Z" fill="#E67E22"/>
<path d="M63.1706 297.596L63.158 295.132L64.1552 291.973L64.395 287.349L64.2562 285.087L65.9603 283.47L65.468 280.602L67.5129 277.734L66.8817 277.544L68.2072 275.106L68.5101 273.287L69.4568 272.162L68.1945 270.305L69.1791 268.928L69.3306 267.727L68.3965 267.336L69.5957 265.061L73.0039 263.987L73.0039 263.735L71.1231 258.062L69.116 257.809L70.5172 256.23L67.9421 248.51L67.0332 247.79L67.2478 246.438L64.4455 237.985L65.3291 237.745L65.7204 238.806L66.238 238.352L66.9701 238.503L63.928 230.025L62.6783 230.025L61.0752 230.038L61.5801 297.608L63.1706 297.596Z" fill="#E67E22"/>
<path d="M18.369 297.269L17.8828 230.888L16.0651 230.901L16.5513 297.282L18.369 297.269Z" fill="#E67E22"/>
<path d="M15.3256 300.466L14.793 227.742L12.9753 227.755L13.5079 300.479L15.3256 300.466Z" fill="#E67E22"/>
<path d="M12.2764 301.588L11.721 225.881L11.721 225.098L5.77559 225.135L5.77559 225.931L6.34362 301.626L6.34362 302.422L12.2891 302.371L12.2764 301.588Z" fill="#E67E22"/>
<path d="M20.0747 232.998L19.4436 232.998L19.4815 238.696L20.1252 238.696L20.1252 238.317L47.0123 237.698L47.0123 237.888L47.4793 237.875L47.4793 238.216L47.757 238.216L47.7696 238.456L48.6406 238.456L48.5901 232.847L47.7191 232.859L47.7191 233.087L47.4414 233.099L47.4541 233.453L46.987 233.466L46.987 233.668L20.0874 233.402L20.0747 232.998Z" fill="#E67E22"/>
<path d="M20.1382 241.057L19.4944 241.057L19.5449 246.756L20.176 246.743L20.176 246.377L47.0757 245.745L47.0757 245.947L47.5427 245.935L47.5427 246.276L47.8204 246.276L47.8204 246.516L48.6914 246.503L48.6535 240.906L47.7825 240.906L47.7825 241.146L47.5048 241.146L47.5048 241.513L47.0504 241.513L47.0504 241.727L20.1382 241.462L20.1382 241.057Z" fill="#E67E22"/>
<path d="M20.2007 249.121L19.5569 249.121L19.6074 254.819L20.2385 254.806L20.2385 254.326L47.1382 253.708L47.1382 253.998L47.6052 253.998L47.6052 254.339L47.8829 254.339L47.8829 254.58L48.7539 254.567L48.716 248.97L47.845 248.97L47.845 249.21L47.5673 249.21L47.5673 249.576L47.1003 249.576L47.1003 249.677L20.2007 249.411L20.2007 249.121Z" fill="#E67E22"/>
<path d="M20.2671 257.167L19.6233 257.179L19.6612 262.865L20.3049 262.865L20.3049 262.385L47.1919 261.766L47.2046 262.057L47.659 262.057L47.6716 262.398L47.9493 262.398L47.9493 262.625L48.8203 262.625L48.7698 257.016L47.8988 257.028L47.8988 257.268L47.6337 257.268L47.6337 257.635L47.1667 257.635L47.1667 257.736L20.2671 257.47L20.2671 257.167Z" fill="#E67E22"/>
<path d="M20.3139 265.23L19.6828 265.243L19.7206 270.928L20.3644 270.928L20.3518 270.448L47.2514 269.817L47.2514 270.12L47.7185 270.12L47.7185 270.449L47.9962 270.449L47.9962 270.689L48.8672 270.689L48.8293 265.079L47.9583 265.092L47.9583 265.332L47.6806 265.332L47.6806 265.698L47.2262 265.698L47.2262 265.799L20.3139 265.533L20.3139 265.23Z" fill="#E67E22"/>
<path d="M20.3803 273.29L19.7366 273.29L19.7871 278.988L20.4182 278.988L20.4182 278.495L47.3178 277.877L47.3178 278.18L47.7849 278.167L47.7849 278.508L48.0626 278.508L48.0626 278.748L48.9336 278.748L48.8957 273.139L48.0247 273.151L48.0247 273.391L47.747 273.391L47.747 273.745L47.28 273.758L47.28 273.846L20.3803 273.593L20.3803 273.29Z" fill="#E67E22"/>
<path d="M20.4428 281.348L19.7991 281.348L19.8369 287.047L20.4807 287.034L20.4807 286.554L47.3677 285.935L47.3803 286.226L47.8348 286.226L47.8474 286.567L48.1251 286.567L48.1251 286.807L48.9961 286.794L48.9582 281.197L48.0746 281.197L48.0872 281.437L47.8095 281.437L47.8095 281.804L47.3425 281.804L47.3425 281.905L20.4428 281.639L20.4428 281.348Z" fill="#E67E22"/>
<path d="M20.4927 289.408L19.8616 289.408L19.8994 295.106L20.5432 295.094L20.5306 294.613L47.4302 293.995L47.4302 294.285L47.8973 294.285L47.8973 294.627L48.175 294.627L48.175 294.867L49.0586 294.854L49.0081 289.257L48.1371 289.257L48.1371 289.497L47.8594 289.497L47.8594 289.863L47.405 289.863L47.405 289.964L20.4927 289.699L20.4927 289.408Z" fill="#E67E22"/>
<path d="M8.13763 305.294L6.34517 305.244L5.38582 337.551L7.17829 337.601L7.26665 334.544L20.748 336.111L23.9921 336.49L23.9164 337.147L25.0651 337.286L28.2461 309.919L27.0974 309.78L27.0595 310.134L23.8154 309.755L8.07453 307.922L8.15026 305.282L8.13763 305.294ZM23.1464 315.466L7.8978 313.608L8.03666 308.807L23.7018 310.652C25.0272 310.803 25.9866 312.016 25.8351 313.343C25.6836 314.67 24.4718 315.63 23.1464 315.478L23.1464 315.466ZM22.3764 322.048L7.68321 320.38L7.83469 315.377L22.9318 317.234C24.2572 317.386 25.2166 318.599 25.0651 319.926C24.9136 321.252 23.7018 322.212 22.3764 322.061L22.3764 322.048ZM21.6064 328.643L7.48124 327.152L7.63272 322.111L22.1744 323.817C23.4998 323.969 24.4592 325.182 24.3077 326.508C24.1562 327.835 22.9444 328.795 21.619 328.643L21.6064 328.643ZM7.29189 333.647L7.43075 328.946L21.4044 330.412C22.7298 330.564 23.6892 331.777 23.5377 333.104C23.3862 334.43 22.1744 335.39 20.849 335.239L7.29189 333.659L7.29189 333.647Z" fill="#4474E0"/>
<path d="M107.505 319.028L104.324 346.395L105.473 346.534L105.776 343.893L115.508 345.03L118.285 345.346L120.33 327.784L120.848 323.375L118.071 323.059L108.338 321.921L108.654 319.154L107.505 319.028ZM117.124 331.259L107.392 330.121L107.606 328.264L114.612 329.073C115.685 329.199 116.644 328.428 116.77 327.355C116.897 326.281 116.127 325.308 115.054 325.194L108.048 324.373L108.263 322.49L117.995 323.627L117.995 323.64C118.878 323.741 119.51 324.55 119.409 325.434C119.308 326.319 118.5 326.95 117.616 326.849L117.553 327.443L117.49 328.037C118.374 328.138 119.017 328.947 118.904 329.831C118.803 330.715 117.995 331.347 117.111 331.246L117.124 331.259ZM116.619 335.643L106.887 334.506L107.265 331.296L116.998 332.434C117.881 332.535 118.525 333.343 118.411 334.228C118.31 335.112 117.503 335.744 116.619 335.643ZM105.864 343.287L106.079 341.429L113.085 342.251C114.157 342.377 115.129 341.606 115.243 340.532C115.369 339.459 114.599 338.486 113.526 338.372L106.533 337.551L106.748 335.681L116.48 336.818C117.364 336.919 117.995 337.728 117.894 338.612C117.793 339.496 116.985 340.128 116.101 340.027L115.963 341.202C116.846 341.303 117.477 342.112 117.376 342.996C117.275 343.881 116.467 344.525 115.584 344.411L105.852 343.274L105.864 343.287Z" fill="#4474E0"/>
<path d="M87.839 316.73L84.658 344.097L85.8067 344.236L85.8698 343.705L100.601 345.424L103.378 345.752L105.423 328.19L106.445 319.384C106.445 319.384 104.665 319.182 103.744 319.068L88.9372 317.349L88.9877 316.869L87.839 316.73ZM103.226 322.884L88.4954 321.165L88.8615 317.968L103.656 319.7C104.501 319.839 105.107 320.609 105.006 321.481C104.905 322.366 104.097 322.997 103.214 322.896L103.226 322.884ZM102.747 327.28L87.9778 325.574L88.3565 322.365L103.088 324.084C103.971 324.185 104.615 324.994 104.501 325.878C104.4 326.75 103.618 327.381 102.747 327.293L102.747 327.28ZM102.204 331.665L87.4729 329.946L87.8516 326.737L102.583 328.443C103.466 328.544 104.097 329.352 103.996 330.237C103.895 331.121 103.088 331.753 102.204 331.652L102.204 331.665ZM101.699 336.049L86.968 334.33L87.3467 331.121L102.078 332.84C102.961 332.941 103.593 333.749 103.492 334.634C103.391 335.518 102.583 336.163 101.699 336.049ZM101.245 340.433L86.4505 338.727L86.8292 335.505L101.56 337.224C102.444 337.325 103.088 338.134 102.974 339.018C102.873 339.89 102.103 340.509 101.245 340.433ZM85.9455 343.111L86.3242 339.902L101.055 341.608C101.939 341.709 102.57 342.518 102.469 343.402C102.368 344.287 101.56 344.918 100.677 344.817L85.9455 343.099L85.9455 343.111Z" fill="#4474E0"/>
<path d="M67.8714 314.428L64.6904 341.795L65.8391 341.934L65.9022 341.391L80.8352 343.135L83.6123 343.463L85.6572 325.901L86.6797 317.107C86.6797 317.107 84.8746 316.892 83.9657 316.791L68.9696 315.047L69.0201 314.593L67.8714 314.454L67.8714 314.428ZM83.5744 320.582L68.5404 318.838L68.9065 315.629L83.8395 317.36C84.7231 317.461 85.3543 318.27 85.2533 319.154C85.1523 320.001 84.4075 320.62 83.5618 320.569L83.5744 320.582ZM82.9811 324.979L68.0229 323.247L68.4016 320.038L83.3346 321.769C84.2182 321.87 84.8494 322.679 84.7484 323.564C84.6474 324.448 83.8521 325.08 82.9811 324.979ZM82.451 329.363L67.518 327.619L67.8966 324.41L82.8549 326.154C83.7259 326.267 84.3571 327.063 84.2561 327.948C84.1551 328.832 83.3472 329.464 82.4636 329.363L82.451 329.363ZM81.9461 333.747L67.013 332.003L67.3917 328.794L82.3248 330.538C83.2084 330.639 83.8521 331.448 83.7385 332.332C83.6375 333.216 82.8297 333.848 81.9461 333.747ZM81.4538 338.131L66.4955 336.4L66.8742 333.178L81.8072 334.922C82.6908 335.023 83.322 335.832 83.221 336.716C83.12 337.601 82.3247 338.22 81.4538 338.131ZM65.9779 340.784L66.3566 337.575L81.2897 339.306C82.1733 339.407 82.8044 340.216 82.7034 341.1C82.6025 341.985 81.7946 342.617 80.911 342.516L65.9779 340.772L65.9779 340.784Z" fill="#4474E0"/>
<path d="M26.1245 336.148L41.3731 337.917C42.2567 338.018 43.0646 337.386 43.1656 336.502C43.2666 335.617 42.6354 334.809 41.7518 334.708L26.5032 332.938L26.642 331.763L41.8907 333.545C42.7743 333.646 43.5821 333.015 43.6831 332.13C43.7841 331.246 43.1529 330.437 42.2693 330.336L27.0334 328.567L27.1722 327.392L42.4208 329.174C43.3044 329.275 44.1123 328.643 44.2133 327.759C44.3143 326.874 43.6831 326.065 42.7995 325.964L27.5509 324.183L27.6898 323.008L42.9384 324.789C43.822 324.89 44.6298 324.259 44.7308 323.374C44.8318 322.49 44.2133 321.694 43.3297 321.58L28.0684 319.798L28.2073 318.623L43.4811 320.392C44.3521 320.468 45.1348 319.849 45.2357 318.977C45.3367 318.093 44.7056 317.284 43.822 317.183L28.5734 315.414L28.7122 314.214L43.9482 315.996C44.8318 316.097 45.6397 315.465 45.7407 314.581C45.8416 313.696 45.2105 312.9 44.3395 312.786L29.0783 311.017L29.154 310.411L44.4657 312.193C45.3746 312.294 47.1797 312.508 47.1797 312.508L46.1572 321.302L44.1123 338.864L41.3352 338.536L26.0866 336.767L26.1498 336.173L26.1245 336.148Z" fill="#4474E0"/>
<path d="M48.2786 312.131L45.0976 339.497L46.2463 339.636L46.3094 339.106L61.0657 340.824L63.8428 341.153L65.8877 323.59L66.9102 314.784C66.9102 314.784 65.1808 314.582 64.2593 314.481L49.3768 312.762L49.4273 312.295L48.2786 312.156L48.2786 312.131ZM63.767 318.284L48.935 316.565L49.301 313.356L64.0574 315.062C64.941 315.163 65.5721 315.972 65.4711 316.856C65.3701 317.715 64.6128 318.334 63.7544 318.271L63.767 318.284ZM63.2242 322.681L48.4174 320.962L48.7961 317.753L63.5777 319.472C64.4613 319.585 65.0798 320.381 64.9788 321.266C64.8778 322.138 64.0952 322.769 63.2242 322.681ZM62.6688 327.065L47.9125 325.346L48.2912 322.137L63.0475 323.843C63.9311 323.944 64.5623 324.753 64.4613 325.637C64.3603 326.522 63.5524 327.166 62.6688 327.052L62.6688 327.065ZM62.1639 331.449L47.4076 329.731L47.7863 326.521L62.5426 328.24C63.4262 328.341 64.0573 329.15 63.9564 330.034C63.8554 330.919 63.0475 331.563 62.1639 331.449ZM61.659 335.846L46.9027 334.128L47.2814 330.906L62.0377 332.624C62.9213 332.725 63.5524 333.534 63.4514 334.418C63.3505 335.303 62.5426 335.947 61.659 335.833L61.659 335.846ZM46.3851 338.512L46.7638 335.303L61.5201 337.021C62.4037 337.122 63.0475 337.931 62.9339 338.815C62.8329 339.7 62.025 340.331 61.1414 340.23L46.3851 338.512Z" fill="#4474E0"/>
<path d="M23.346 326.419L21.6602 324.288L19.5313 325.975L21.2172 328.106L23.346 326.419Z" fill="#4474E0"/>
<path d="M24.0925 319.841L22.4062 317.71L20.2777 319.397L21.964 321.528L24.0925 319.841Z" fill="#4474E0"/>
<path d="M24.8773 313.234L23.1914 311.103L21.0626 312.79L22.7485 314.921L24.8773 313.234Z" fill="#4474E0"/>
<path d="M22.5875 332.968L20.9023 330.836L18.7729 332.522L20.4581 334.654L22.5875 332.968Z" fill="#4474E0"/>
<path d="M122.634 323.191L121.48 323.059L118.881 345.755L120.035 345.888L122.634 323.191Z" fill="#4474E0"/>
<path d="M105.785 202.295L108.121 197.241L105.293 202.472L105.28 202.472L105.28 202.485L105.28 202.498L105.293 202.498L108.562 208.904L105.785 202.295Z" fill="#64A74A"/>
<path d="M9.27162 220.675L9.90277 220.132L34.139 219.286C34.139 219.286 36.9286 218.692 37.9385 218.654C36.9286 218.692 34.1137 218.288 34.1137 218.288L34.1137 217.807L34.505 217.795L36.916 217.706L37.3326 217.706L53.8309 217.113L54.2474 217.113L55.8505 217.037L56.2671 217.037L71.3516 216.494L71.7682 216.494L73.3713 216.418L73.7878 216.418L94.3002 215.686L94.3507 217.152L118.473 216.305C118.473 216.305 121.705 215.699 122.866 215.661C121.705 215.699 118.435 215.32 118.435 215.32L118.435 214.84C118.435 214.84 126.956 209.432 129.556 209.344L138.443 209.028L138.443 208.94C138.443 208.94 139.895 208.662 140.412 208.649C139.895 208.662 138.418 208.498 138.418 208.498C138.418 208.498 148.756 200.829 157.289 200.525C148.756 200.829 137.9 193.892 137.9 193.892C137.9 193.892 139.352 193.614 139.882 193.601C139.364 193.614 137.887 193.45 137.887 193.45L137.887 193.386L129.001 193.702C126.312 193.791 117.501 188.989 117.501 188.989L117.501 188.509C117.501 188.509 120.72 187.903 121.882 187.852C120.72 187.89 117.451 187.511 117.451 187.511L93.3283 188.357L93.3787 189.823L72.8663 190.542L72.4498 190.542L70.8467 190.618L70.4301 190.618L55.3456 191.161L54.9291 191.161L53.3259 191.237L52.9094 191.237L36.4111 191.831L35.9945 191.831L33.5835 191.932L33.167 191.932L33.1544 191.464C33.1544 191.464 35.944 190.87 36.9539 190.832C35.944 190.87 33.1291 190.466 33.1291 190.466L8.89293 191.312L8.2744 190.832L4.47488 190.971L5.52258 220.814L9.28424 220.688L9.27162 220.675ZM20.4935 216.632L20.3672 213.107L22.7782 213.019L22.9045 216.544L20.4935 216.632ZM34.0127 216.165L23.321 216.544L23.1948 213.019L33.8865 212.64L34.0127 216.165ZM34.3788 214.51L34.3157 212.627L36.7267 212.539L36.7898 214.421L34.3788 214.51ZM37.2063 214.409L37.1432 212.526L53.6415 211.945L53.7046 213.828L37.2063 214.409ZM54.1338 213.815L54.0707 211.933L55.6738 211.882L55.7369 213.765L54.1338 213.815ZM56.1661 213.739L56.103 211.857L71.1875 211.327L71.2506 213.209L56.1661 213.739ZM71.0613 195.445L70.9982 193.764L72.6013 193.714L72.6644 195.394L71.0613 195.445ZM94.5779 194.548L96.8753 194.472L97.1657 195.091L96.9258 195.736L94.6411 195.812L94.5906 194.548L94.5779 194.548ZM70.6447 195.457L55.5602 195.988L55.4971 194.307L70.5816 193.777L70.6447 195.457ZM94.9314 204.618L97.2288 204.542L97.5191 205.161L97.2793 205.806L94.9819 205.881L94.9314 204.618ZM71.4147 205.515L71.3516 203.632L72.9547 203.582L73.0178 205.464L71.4147 205.515ZM90.7532 204.833L73.447 205.439L73.3839 203.556L90.69 202.95L90.7532 204.833ZM71.3264 203.026L71.2632 201.244L72.8663 201.194L72.9295 202.975L71.3264 203.026ZM94.843 202.104L97.1404 202.028L97.4307 202.647L97.1909 203.291L94.8935 203.367L94.843 202.104ZM90.6648 202.356L73.346 202.962L73.2829 201.181L90.5891 200.575L90.6522 202.356L90.6648 202.356ZM33.8108 197.946L36.2217 197.857L36.2722 199.222L33.8613 199.31L33.8108 197.946ZM33.4321 199.323L22.7404 199.702L22.6899 198.337L33.3816 197.958L33.4321 199.323ZM53.6289 199.21L55.232 199.159L55.2825 200.625L53.6794 200.675L53.6289 199.21ZM70.7962 200.082L55.7117 200.612L55.6612 199.146L70.7457 198.616L70.7962 200.082ZM71.1622 198.603L72.7654 198.553L72.8159 200.019L71.2127 200.069L71.1622 198.603ZM94.742 199.602L97.0268 199.526L97.3171 200.145L97.0773 200.79L94.7799 200.865L94.742 199.602ZM73.2324 200.006L73.1819 198.54L90.5007 197.934L90.5512 199.4L73.245 200.006L73.2324 200.006ZM71.137 198.01L71.0865 196.645L72.6896 196.595L72.7401 197.959L71.137 198.01ZM94.6537 197.088L96.9511 197.012L97.2414 197.631L97.0016 198.275L94.7042 198.351L94.6537 197.088ZM90.4755 197.34L73.1567 197.946L73.1062 196.582L90.4123 195.976L90.4628 197.34L90.4755 197.34ZM55.1184 196.026L53.5153 196.076L53.4522 194.396L55.0553 194.345L55.1184 196.026ZM53.0861 196.101L36.5878 196.682L36.5247 195.002L53.023 194.421L53.0861 196.101ZM36.1586 196.695L33.7476 196.783L33.6845 195.103L36.0955 195.015L36.1586 196.695ZM70.6573 196.683L70.7078 198.047L55.6233 198.578L55.5728 197.213L70.6573 196.683ZM55.1941 198.59L53.591 198.641L53.5405 197.276L55.1437 197.226L55.1941 198.59ZM53.1618 198.666L36.6636 199.247L36.6131 197.883L53.1113 197.302L53.1618 198.666ZM22.2355 198.388L22.2859 199.752L19.875 199.841L19.8245 198.476L22.2355 198.388ZM53.1745 199.26L53.2249 200.726L36.7267 201.307L36.6762 199.841L53.1745 199.26ZM36.2975 201.319L33.8865 201.408L33.836 199.942L36.247 199.854L36.2975 201.319ZM70.8088 201.307L70.8719 203.089L55.7874 203.619L55.7243 201.838L70.8088 201.307ZM55.3582 203.632L53.7551 203.682L53.692 201.901L55.2951 201.85L55.3582 203.632ZM70.8845 203.683L70.9477 205.565L55.8632 206.095L55.8 204.213L70.8845 203.683ZM73.5101 208.635L90.8163 208.029L90.8668 209.495L73.548 210.101L73.4975 208.635L73.5101 208.635ZM73.1441 210.114L71.5409 210.164L71.4904 208.699L73.0936 208.648L73.1441 210.114ZM71.4652 208.105L71.4147 206.74L73.0178 206.69L73.0683 208.054L71.4652 208.105ZM94.9819 207.183L97.2793 207.107L97.5696 207.726L97.3298 208.37L95.0324 208.446L94.9945 207.183L94.9819 207.183ZM90.8037 207.435L73.4975 208.042L73.447 206.677L90.7658 206.071L90.8163 207.435L90.8037 207.435ZM55.4466 206.121L53.8435 206.171L53.7804 204.289L55.3835 204.238L55.4466 206.121ZM53.4143 206.197L36.916 206.777L36.8529 204.895L53.3512 204.314L53.4143 206.197ZM36.4868 206.79L34.0758 206.878L34.0127 204.996L36.4237 204.907L36.4868 206.79ZM70.9855 206.778L71.036 208.143L55.9515 208.673L55.901 207.308L70.9855 206.778ZM55.5223 208.686L53.9192 208.736L53.8687 207.372L55.4718 207.321L55.5223 208.686ZM71.0486 208.736L71.0991 210.202L56.0146 210.732L55.9641 209.267L71.0486 208.736ZM55.5855 210.745L53.9823 210.796L53.9318 209.33L55.535 209.279L55.5855 210.745ZM53.5531 210.821L37.0549 211.402L37.0044 209.936L53.5027 209.355L53.5531 210.821ZM36.6257 211.414L34.2147 211.503L34.1642 210.037L36.5752 209.949L36.6257 211.414ZM71.6167 213.272L71.5536 211.39L73.1567 211.339L73.2198 213.222L71.6167 213.272ZM73.649 213.197L73.5859 211.314L90.9046 210.708L90.9678 212.59L73.6616 213.197L73.649 213.197ZM95.0829 210.973L95.0324 209.71L97.3298 209.634L97.6201 210.253L97.3802 210.897L95.0829 210.973ZM117.539 209.533L117.009 210.203L114.724 210.279L114.686 209.015L116.971 208.939L117.539 209.533ZM114.636 207.764L114.585 206.501L116.87 206.425L117.451 207.006L116.921 207.676L114.636 207.752L114.636 207.764ZM135.83 206.375L135.085 207.057L130.074 207.234L130.036 205.971L135.047 205.794L135.843 206.375L135.83 206.375ZM114.548 205.25L114.497 203.987L116.782 203.911L117.35 204.505L116.82 205.174L114.535 205.25L114.548 205.25ZM135.742 203.861L134.997 204.543L129.985 204.72L129.935 203.456L134.946 203.279L135.742 203.861ZM114.459 202.736L114.421 201.472L116.706 201.396L117.274 201.99L116.744 202.66L114.459 202.736ZM135.653 201.346L134.908 202.029L129.897 202.205L129.847 200.942L134.858 200.765L135.653 201.346ZM114.371 200.221L114.32 198.958L116.605 198.882L117.173 199.476L116.643 200.146L114.358 200.221L114.371 200.221ZM135.565 198.832L134.82 199.514L129.809 199.691L129.771 198.428L134.782 198.251L135.577 198.832L135.565 198.832ZM114.282 197.707L114.232 196.444L116.517 196.368L117.085 196.962L116.555 197.631L114.27 197.707L114.282 197.707ZM135.476 196.318L134.732 197L129.72 197.177L129.67 195.913L134.681 195.736L135.476 196.318ZM113.184 202.23C113.323 206.21 110.218 209.546 106.242 209.685C102.265 209.824 98.9329 206.715 98.794 202.735C98.6552 198.756 101.76 195.42 105.737 195.281C109.713 195.142 113.045 198.25 113.184 202.23ZM117.009 194.447L116.479 195.117L114.194 195.193L114.144 193.929L116.441 193.854L117.009 194.447ZM90.3366 194.839L73.0305 195.445L72.9673 193.764L90.2735 193.158L90.3366 194.839ZM33.167 193.561L33.2806 196.834L22.5889 197.213L22.4753 193.94L33.167 193.561ZM22.0461 193.953L22.1597 197.225L19.7487 197.314L19.6351 194.041L22.0461 193.953ZM19.2186 194.054L19.3322 197.326L9.0444 197.68L8.9308 194.42L19.2186 194.054ZM9.09489 198.868L19.3827 198.527L19.4332 199.891L9.14539 200.257L9.09489 198.88L9.09489 198.868ZM33.3942 199.993L33.4447 201.458L22.753 201.837L22.7025 200.371L33.3942 199.993ZM22.2733 200.384L22.3238 201.85L19.9128 201.938L19.8623 200.472L22.2733 200.384ZM9.15802 200.839L19.4458 200.472L19.4963 201.938L9.20851 202.292L9.15802 200.826L9.15802 200.839ZM53.2376 201.951L53.3007 203.733L36.8024 204.314L36.7393 202.532L53.2376 201.951ZM36.3101 202.545L36.3732 204.326L33.9622 204.415L33.8991 202.633L36.3101 202.545ZM33.4826 202.646L33.5457 204.427L22.854 204.806L22.7909 203.025L33.4826 202.646ZM22.3617 203.037L22.4248 204.819L20.0138 204.907L19.9507 203.126L22.3617 203.037ZM9.24638 203.492L19.5341 203.126L19.5972 204.907L9.30949 205.273L9.24638 203.492ZM33.5583 205.021L33.6214 206.904L22.9297 207.283L22.8666 205.4L33.5583 205.021ZM22.4374 205.413L22.5005 207.295L20.0895 207.384L20.0264 205.501L22.4374 205.413ZM9.32211 205.867L19.6099 205.501L19.673 207.384L9.38524 207.75L9.32211 205.867ZM53.4143 207.409L53.4648 208.774L36.9665 209.355L36.916 207.99L53.4143 207.409ZM36.4868 208.003L36.5373 209.368L34.1263 209.456L34.0758 208.091L36.4868 208.003ZM33.6593 208.104L33.7098 209.469L23.0181 209.847L22.9676 208.483L33.6593 208.104ZM22.5384 208.495L22.5889 209.86L20.1779 209.948L20.1274 208.584L22.5384 208.495ZM9.42309 208.95L19.7109 208.584L19.7613 209.948L9.47359 210.315L9.42309 208.95ZM33.7224 210.062L33.7729 211.528L23.0812 211.907L23.0307 210.441L33.7224 210.062ZM22.6015 210.454L22.652 211.919L20.241 212.008L20.1905 210.542L22.6015 210.454ZM19.774 210.555L19.8245 212.021L9.5367 212.374L9.48621 210.921L19.774 210.555ZM9.58719 213.562L19.875 213.221L20.0012 216.746L9.71342 217.099L9.58719 213.562Z" fill="#64A74A"/>
<path d="M6.63438 187.044L38.5958 184.745L36.3616 153.664L30.1763 154.106L29.8481 149.494L32.9912 149.267L32.6378 144.365L30.0753 144.554L30.0374 143.985L30.0122 143.985L29.6083 138.376L41.8273 133.36L41.8652 133.891L42.7109 133.827L42.6478 133.019L42.6731 133.019L42.61 132.16L42.5847 132.16L40.5398 103.757L39.694 103.82L39.694 104.06L39.2901 104.085L39.2901 103.82L38.8862 103.845L38.8862 103.959L27.1846 104.805L27.1846 104.717L26.2505 104.78L26.2505 105.02L25.8971 105.045L25.8971 104.78L25.4805 104.805L25.4805 104.919L13.8421 105.753L13.8421 105.664L12.9838 105.727L12.9838 105.917L12.6556 105.942L12.6303 105.727L12.1633 105.765L12.1633 105.879L0.853039 106.7L0.827785 106.334L-1.69682 106.51L4.12239 187.36L6.64699 187.183L6.64699 187.057L6.63438 187.044ZM29.2043 165.768C30.151 165.705 30.9715 166.311 31.022 167.12C31.0851 167.941 30.3656 168.661 29.4189 168.724L27.8789 168.838L27.6643 165.869L29.2043 165.755L29.2043 165.768ZM34.872 161.8L35.0235 163.86L32.196 164.062L32.0445 161.99L34.872 161.788L34.872 161.8ZM23.8648 161.775L21.4917 161.952L25.9728 160.095C25.6825 161.004 24.8746 161.699 23.8648 161.775ZM28.2955 145.716L27.942 145.742L27.9673 146.159L26.5535 146.26L28.2828 145.552L28.2828 145.704L28.2955 145.716ZM28.1945 142.558L28.2324 143.05L28.611 143.025L28.6868 144.087L16.6444 144.92L16.5308 143.417L28.1945 142.583L28.1945 142.558ZM40.8301 130.972L40.868 131.465L41.2467 131.439L41.3098 132.248L29.2169 133.12L29.1286 131.818L40.8427 130.972L40.8301 130.972ZM27.4245 131.932L27.4623 132.425L27.8537 132.399L28.4469 140.65L28.0682 140.675L28.0935 141.105L16.4298 141.938L16.2784 139.841L22.3248 139.399C23.6754 139.298 24.6979 138.123 24.5969 136.771C24.4959 135.419 23.322 134.396 21.9713 134.497L15.9249 134.926L15.7734 132.766L27.4245 131.932ZM40.1863 121.9L40.2116 122.292L40.5903 122.267L41.0826 129.064L40.7039 129.089L40.7291 129.519L29.015 130.365L28.9014 128.811L34.9225 128.369C36.2732 128.268 37.2957 127.207 37.2073 125.981C37.1189 124.756 35.9576 123.846 34.5943 123.934L28.5732 124.364L28.4596 122.734L40.1737 121.888L40.1863 121.9ZM26.7807 122.86L26.8059 123.252L27.1973 123.227L27.6896 130.024L27.2982 130.049L27.3235 130.479L15.6724 131.313L15.5588 129.759L21.6179 129.316C22.9685 129.215 23.991 128.141 23.9027 126.929C23.8143 125.703 22.6404 124.793 21.2897 124.882L15.2306 125.324L15.117 123.694L26.7681 122.86L26.7807 122.86ZM39.6562 114.446L39.6814 114.736L40.0601 114.711L40.464 120.359L40.0854 120.384L40.1106 120.725L28.3964 121.571L28.3081 120.308L34.2788 119.879C35.6294 119.777 36.6645 118.868 36.5888 117.832C36.513 116.796 35.3643 116.038 34.0137 116.139L28.043 116.568L27.9546 115.292L39.6688 114.446L39.6562 114.446ZM26.2505 115.406L26.2758 115.696L26.6671 115.671L27.071 121.319L26.6797 121.344L26.705 121.685L15.0539 122.519L14.9656 121.255L20.9615 120.813C22.3122 120.712 23.3472 119.803 23.2715 118.766C23.1958 117.73 22.0471 116.972 20.6964 117.073L14.6879 117.503L14.5995 116.227L26.2505 115.393L26.2505 115.406ZM39.2396 108.659L39.2396 108.836L39.6309 108.811L39.9591 113.296L39.5804 113.321L39.5804 113.574L27.8915 114.42L27.8284 113.523L33.8496 113.081C35.2002 112.98 36.248 112.209 36.1848 111.338C36.1217 110.478 34.973 109.859 33.6224 109.96L27.6012 110.39L27.5381 109.493L39.2522 108.646L39.2396 108.659ZM25.834 109.619L25.834 109.796L26.2379 109.771L26.5661 114.256L26.1748 114.281L26.1748 114.534L14.549 115.368L14.4859 114.471L20.5449 114.028C21.8956 113.927 22.9433 113.157 22.8802 112.285C22.8171 111.426 21.6684 110.807 20.3177 110.908L14.2587 111.35L14.1956 110.453L25.8466 109.619L25.834 109.619ZM38.924 104.313L38.924 104.439L39.3154 104.414L39.5678 107.939L39.1891 107.964L39.1891 108.116L27.4876 108.962L27.4371 108.305L33.4583 107.863C34.8089 107.762 35.8693 107.118 35.8188 106.423C35.7683 105.728 34.6322 105.235 33.2816 105.336L27.2604 105.765L27.2225 105.159L38.9367 104.313L38.924 104.313ZM25.5184 105.273L25.5184 105.399L25.9223 105.374L26.1748 108.899L25.7835 108.924L25.7835 109.076L14.1451 109.909L14.0946 109.252L20.1284 108.81C21.479 108.709 22.5394 108.065 22.4889 107.357C22.4384 106.662 21.3023 106.17 19.9517 106.271L13.9179 106.7L13.8674 106.094L25.5184 105.26L25.5184 105.273ZM1.16861 110.857L1.11812 110.212L6.78585 109.796C8.13651 109.695 9.19685 109.05 9.14635 108.355C9.09586 107.66 7.95979 107.168 6.60913 107.269L0.941398 107.673L0.890907 107.054L12.2011 106.233L12.2011 106.359L12.5924 106.321L12.8449 109.846L12.4662 109.871L12.4662 110.023L1.16861 110.844L1.16861 110.857ZM1.55992 116.315L1.49681 115.418L7.16454 115.001C8.5152 114.9 9.56292 114.129 9.4998 113.258C9.43668 112.398 8.28799 111.779 6.93733 111.88L1.2696 112.284L1.20648 111.387L12.5167 110.566L12.5167 110.743L12.908 110.718L13.2362 115.203L12.8575 115.229L12.8575 115.481L1.55992 116.302L1.55992 116.315ZM2.07747 123.466L1.98911 122.203L7.65684 121.786C9.0075 121.685 10.0426 120.775 9.96685 119.739C9.89112 118.703 8.74242 117.945 7.39176 118.046L1.72403 118.45L1.63567 117.174L12.9459 116.353L12.9711 116.644L13.3498 116.618L13.7538 122.266L13.2993 122.304L13.3246 122.645L2.07747 123.454L2.07747 123.466ZM2.70862 132.247L2.59501 130.693L8.26275 130.276C9.61341 130.175 10.6359 129.114 10.5475 127.889C10.4591 126.663 9.29784 125.753 7.94717 125.842L2.27943 126.246L2.16583 124.616L13.4129 123.808L13.4382 124.199L13.8926 124.161L14.3849 130.959L14.0062 130.984L14.0315 131.414L2.72124 132.235L2.70862 132.247ZM3.47862 142.886L3.32715 140.763L8.94438 140.346C10.295 140.245 11.3175 139.07 11.2165 137.718C11.1155 136.366 9.9416 135.343 8.59094 135.444L2.9737 135.848L2.82222 133.688L14.1324 132.867L14.1703 133.359L14.549 133.334L15.1423 141.623L14.7636 141.622L14.7888 142.065L3.47862 142.873L3.47862 142.886ZM4.05928 151.023L9.72701 150.606C11.0777 150.505 12.1001 149.33 11.9992 147.978C11.8982 146.626 10.7242 145.602 9.37357 145.703L3.70584 146.108L3.5796 144.326L14.8898 143.518L14.9277 144.01L15.3064 143.985L15.8618 151.756L4.17288 152.627L4.05928 151.023ZM22.8171 149.267L18.4243 149.582L22.3248 147.991L28.0935 147.574L28.1314 148.054L28.4848 148.029L28.9392 154.422L28.5858 154.447L28.611 154.864L17.2882 155.685L17.1998 154.523L23.1453 154.093C24.4707 153.992 25.4805 152.842 25.3795 151.503C25.2786 150.176 24.1299 149.166 22.7918 149.267L22.8171 149.267ZM4.63994 159.071L4.55158 157.908L10.396 157.479C11.7214 157.378 12.7313 156.228 12.6303 154.889C12.6303 154.725 12.5924 154.56 12.5419 154.396L15.8366 153.044L16.1774 157.808L15.8239 157.833L15.8492 158.25L4.62731 159.058L4.63994 159.071ZM17.4775 158.237L17.4018 157.1L28.7246 156.279L28.7625 156.759L29.116 156.734L29.1665 157.492L17.4775 158.225L17.4775 158.237ZM5.25846 167.789L5.1701 166.626L11.0146 166.197C12.34 166.096 13.3498 164.946 13.2488 163.607C13.1478 162.268 11.9992 161.269 10.6611 161.37L4.81666 161.787L4.7283 160.486L15.9502 159.677L15.988 160.158L16.3415 160.132L16.7959 166.526L16.4425 166.551L16.4677 166.968L5.24584 167.776L5.25846 167.789ZM5.44781 170.354L5.37208 169.216L16.5939 168.408L16.6318 168.888L16.9852 168.863L17.0357 169.621L5.44781 170.354ZM18.2097 165.932L24.1551 165.502C25.4805 165.401 26.6292 166.26 26.7176 167.41C26.8059 168.56 25.7835 169.571 24.4581 169.672L18.5126 170.101L18.2097 165.932ZM32.7766 171.744L32.6378 169.874L35.4653 169.672L35.6042 171.542L32.7766 171.744ZM5.8265 175.521L9.71438 173.917L11.6836 173.778C13.009 173.677 14.1451 174.308 14.2082 175.18C14.2713 176.052 13.2362 176.835 11.9108 176.924L5.96535 177.353L5.83912 175.521L5.8265 175.521ZM18.7398 173.26L24.6853 172.83C26.0107 172.729 27.1468 173.361 27.2099 174.233C27.273 175.105 26.2379 175.888 24.9125 175.976L18.9671 176.406L18.7398 173.247L18.7398 173.26ZM33.1806 177.404L33.0796 176.002L35.9071 175.8L36.0081 177.202L33.1806 177.404ZM6.14208 180.044L12.0875 179.615C13.4129 179.514 14.5364 179.969 14.5869 180.626C14.6374 181.283 13.5897 181.889 12.2642 181.99L6.3188 182.42L6.14208 180.032L6.14208 180.044ZM19.1564 179.11L25.1018 178.68C26.4273 178.579 27.5507 179.034 27.6012 179.691C27.6517 180.348 26.604 180.955 25.2786 181.056L19.3331 181.485L19.1564 179.097L19.1564 179.11ZM33.5088 181.965L33.4456 181.144L36.2732 180.942L36.3363 181.763L33.5088 181.965ZM6.47027 184.643L12.4157 184.214C13.7411 184.113 14.852 184.328 14.8772 184.694C14.9024 185.048 13.8421 185.427 12.5167 185.515L6.57126 185.945L6.4829 184.643L6.47027 184.643ZM19.4846 183.709L25.43 183.279C26.7555 183.178 27.8663 183.393 27.8915 183.759C27.9168 184.113 26.8564 184.492 25.531 184.581L19.5856 185.01L19.4846 183.709ZM28.9266 183.027L30.4666 182.913C31.4133 182.85 32.196 183.077 32.2212 183.444C32.2465 183.797 31.5017 184.151 30.555 184.214L29.015 184.328L28.9266 183.027ZM33.7107 184.821L33.6855 184.417L36.513 184.214L36.5383 184.619L33.7107 184.821Z" fill="#703593"/>
<path d="M57.3552 126.28L55.6406 102.371L54.117 102.481L55.8317 126.389L57.3552 126.28Z" fill="#703593"/>
<path d="M43.846 103.705L43.7071 103.705L41.7379 103.857L43.7576 131.982L45.8656 131.83L45.8656 131.78L55.4844 127.181L53.7424 102.985L43.846 103.693L43.846 103.705ZM49.3875 117.844C50.3594 117.768 51.1799 118.311 51.2304 119.057C51.2809 119.802 50.5488 120.446 49.5768 120.522L48.8194 120.585L48.6301 117.907L49.3875 117.856L49.3875 117.844ZM48.7816 109.479C49.7535 109.404 50.5614 109.795 50.5993 110.351C50.6371 110.907 49.8924 111.4 48.9204 111.476L48.163 111.539L48.0242 109.543L48.7816 109.492L48.7816 109.479ZM48.3902 104.034C49.3622 103.971 50.1575 104.122 50.1701 104.375C50.1827 104.628 49.4253 104.893 48.4534 104.969L47.696 105.019L47.6329 104.084L48.3902 104.034Z" fill="#703593"/>
<path d="M41.3382 391.526L43.1055 365.158L42.8783 364.867L41.982 363.97L10.4371 361.822L8.4048 392.309L37.16 394.205L41.3382 391.514L41.3382 391.526ZM25.9129 370.742L26.279 365.334L32.7167 365.764L34.8626 368.632L34.8626 368.657L32.3507 371.21L25.9129 370.78L25.9129 370.742ZM36.9959 368.809L38.5738 365.966L39.773 368.973L38.1825 371.816L36.9959 368.809ZM25.2439 380.85L25.61 375.442L32.0477 375.872L34.1936 378.74L34.1936 378.765L31.6816 381.317L25.2439 380.888L25.2439 380.85ZM36.3269 378.879L37.9048 376.036L39.104 379.043L37.5261 381.886L36.3395 378.879L36.3269 378.879ZM24.5496 391.337L24.9157 385.929L31.3534 386.359L33.4994 389.227L33.4994 389.252L30.9874 391.804L24.5496 391.374L24.5496 391.337ZM35.6326 389.404L37.2105 386.561L38.4097 389.568L36.8318 392.411L35.6453 389.404L35.6326 389.404Z" fill="#F5B400"/>
<path d="M10.6164 341.754L5.125 341.387L0.435479 411.428L5.92687 411.796L10.6164 341.754Z" fill="#F5B400"/>
<path d="M48.0131 395.407L53.8707 395.799L54.3125 389.127L48.0131 395.407Z" fill="#F5B400"/>
<path d="M54.7307 382.833L54.92 380.103L54.92 380.091L55.1094 377.184L44.1769 366.179L43.3058 379.307L43.3058 379.332L42.5358 390.742L54.7307 382.833Z" fill="#F5B400"/>
<path d="M55.9648 364.412L51.66 364.121L55.5735 370.136L55.9648 364.412Z" fill="#F5B400"/>
<path d="M64.4443 379.813C64.5075 380.141 64.5327 380.47 64.5075 380.823C64.4696 381.316 64.3433 381.784 64.1414 382.213L67.1459 385.259L70.5039 381.102L68.2442 377.374L64.4443 379.825L64.4443 379.813Z" fill="#F5B400"/>
<path d="M64.1514 388.96L61.2226 384.398C60.9449 384.436 60.6546 384.462 60.3642 384.436C59.9729 384.411 59.5941 384.323 59.2407 384.196L55.3777 388.025L54.5192 400.926L64.1641 388.96L64.1514 388.96Z" fill="#F5B400"/>
<path d="M65.8068 373.343L57.2981 359.305L56.4902 371.473L59.8861 376.742C60.2143 376.679 60.5425 376.654 60.896 376.679C61.3378 376.704 61.7671 376.818 62.1584 376.982L65.832 373.356L65.8068 373.343Z" fill="#F5B400"/>
<path d="M56.8332 381.427C56.7448 381.061 56.7195 380.682 56.7448 380.29C56.77 379.848 56.8837 379.431 57.0352 379.052L56.0378 378.054L55.899 380.113L55.7601 382.11L56.8205 381.427L56.8332 381.427Z" fill="#F5B400"/>
<path d="M80.7076 412.615L81.4145 412.16L81.1873 411.819L83.6614 409.822L84.179 410.454L84.8227 409.936L84.3052 409.304L86.7919 407.295L87.0823 407.586L87.6755 406.992L87.4483 406.765L87.4736 406.74L87.1328 406.31L87.057 406.373L84.7596 404.074L84.5829 403.859L84.5577 403.859L82.2729 401.585L82.4749 401.42L82.1088 400.965L81.8563 401.168L76.7061 396.025L76.8955 395.874L76.5294 395.419L76.2896 395.608L73.8155 393.144L74.3456 392.715L73.9796 392.26L73.3989 392.727L70.7228 390.049L70.5335 389.821L70.5082 389.847L67.8322 387.168L67.6428 386.941L67.6176 386.966L63.2248 382.582C63.5908 382.101 63.8181 381.52 63.8685 380.876C63.9064 380.32 63.7802 379.789 63.5656 379.309L68.943 375.847L68.9935 375.809L72.3765 373.636L72.5406 373.839L72.995 373.472L72.8687 373.308L75.8099 371.413L76.1886 371.893L76.643 371.526L76.3022 371.097L79.2308 369.202L79.3444 369.341L79.7988 368.974L79.7231 368.886L85.8452 364.944L85.9588 365.083L86.4132 364.717L86.3375 364.615L89.0515 362.859L89.0893 362.897L89.4554 362.594L92.0179 360.939L92.081 361.015L92.5102 360.674L92.4849 360.648L92.75 360.471L92.2956 359.764L91.9547 359.991L89.9603 357.515L90.5915 356.997L90.0739 356.352L89.4428 356.87L87.4357 354.381L87.726 354.091L87.1328 353.497L86.9055 353.724L86.8803 353.699L86.4511 354.04L86.5142 354.116L84.2168 356.416L84.0023 356.592L84.0275 356.618L81.7427 358.905L81.5786 358.702L81.1242 359.069L81.3262 359.321L76.1886 364.476L76.0371 364.287L75.5827 364.653L75.772 364.893L73.3106 367.37L72.8814 366.839L72.4269 367.205L72.894 367.787L70.2179 370.465L69.9907 370.655L70.016 370.68L67.3399 373.358L67.1127 373.548L67.1379 373.573L62.6315 378.096C62.1392 377.717 61.5459 377.477 60.8895 377.439C60.2962 377.401 59.7408 377.528 59.2485 377.78L55.6762 372.234L55.6383 372.183L53.4672 368.797L53.6691 368.633L53.3031 368.178L53.139 368.304L51.2455 365.373L51.7252 364.981L51.3591 364.526L50.93 364.868L49.0365 361.936L49.1754 361.823L48.8093 361.368L48.7209 361.443L44.7825 355.316L44.9214 355.202L44.5553 354.747L44.4544 354.823L42.6998 352.106L42.7376 352.068L42.4347 351.702L40.7811 349.137L40.8568 349.074L40.516 348.644L40.4907 348.67L40.314 348.404L39.6071 348.859L39.8343 349.2L37.3602 351.197L36.8427 350.565L36.1989 351.083L36.7164 351.715L34.2297 353.723L33.9394 353.433L33.3461 354.027L33.5733 354.254L33.5481 354.279L33.8889 354.709L33.9646 354.646L36.262 356.945L36.4387 357.16L36.464 357.16L38.7487 359.422L38.5468 359.586L38.9129 360.041L39.1653 359.839L44.3155 364.981L44.1262 365.133L44.4922 365.588L44.7321 365.398L47.2062 367.862L46.676 368.291L47.0421 368.746L47.6227 368.279L50.3114 370.957L50.4882 371.185L50.5134 371.16L53.1895 373.838L53.3788 374.066L53.4041 374.04L58.0872 378.715C57.7211 379.195 57.4939 379.777 57.4434 380.421C57.4056 381.053 57.5444 381.647 57.8221 382.165L52.5583 385.563L52.5078 385.601L49.1249 387.774L48.9608 387.572L48.5063 387.938L48.6326 388.103L45.6914 389.998L45.3127 389.518L44.8583 389.884L45.1991 390.314L42.2706 392.209L42.157 392.07L41.7025 392.436L41.7656 392.525L35.6435 396.467L35.5299 396.328L35.0755 396.694L35.1512 396.795L32.4246 398.551L32.3867 398.513L32.0207 398.817L29.4582 400.472L29.3951 400.396L28.9659 400.737L28.9912 400.762L28.7261 400.939L29.1805 401.647L29.5213 401.419L31.5158 403.896L30.8846 404.414L31.4022 405.058L32.0333 404.54L34.0404 407.029L33.75 407.32L34.3433 407.914L34.5705 407.686L34.5958 407.711L35.025 407.37L34.9618 407.295L37.2592 404.995L37.4738 404.818L37.4486 404.793L39.7333 402.506L39.8974 402.708L40.3519 402.342L40.1499 402.089L45.2875 396.934L45.4389 397.124L45.8934 396.757L45.704 396.517L48.1655 394.041L48.5947 394.572L49.0491 394.205L48.5821 393.624L51.2582 390.933L51.4854 390.743L51.4601 390.718L54.1362 388.04L54.3634 387.85L54.3382 387.825L58.832 383.314C59.2864 383.618 59.8039 383.82 60.3846 383.858C60.94 383.896 61.4702 383.782 61.9498 383.554L65.3202 388.785L65.3581 388.836L67.5418 392.222L67.3399 392.386L67.7059 392.841L67.87 392.715L69.7635 395.646L69.2838 396.025L69.6499 396.48L70.0791 396.139L71.9725 399.07L71.8337 399.184L72.1997 399.639L72.2881 399.575L76.2265 405.703L76.0876 405.817L76.4537 406.272L76.5547 406.196L78.3093 408.925L78.2714 408.963L78.5744 409.33L80.228 411.894L80.1522 411.958L80.4931 412.387L80.5183 412.362L80.695 412.627L80.7076 412.615ZM83.9644 408.862L82.235 406.714L84.4441 404.933L86.4006 406.891L83.9644 408.862ZM83.9013 404.389L81.7554 406.12L79.7357 403.619L81.6165 402.103L83.9139 404.389L83.9013 404.389ZM79.357 403.164L77.3625 400.687L78.9278 399.424L81.1873 401.686L79.357 403.164ZM78.4986 399.007L76.9839 400.232L74.8001 397.529L76.0245 396.543L78.4986 399.007ZM75.6079 396.126L74.434 397.074L72.2502 394.37L73.1338 393.65L75.6079 396.114L75.6079 396.126ZM71.8842 393.915L69.7004 391.211L70.2432 390.769L72.7173 393.233L71.8842 393.902L71.8842 393.915ZM69.3343 390.756L67.1505 388.052L67.3525 387.888L69.8266 390.352L69.3343 390.744L69.3343 390.756ZM66.7845 387.598L65.6484 386.183L66.9359 387.471L66.7845 387.598ZM67.0117 376.024L68.274 375.013L68.3876 375.152L67.0243 376.037L67.0117 376.024ZM68.8799 374.824L68.7284 374.634L71.4297 372.449L71.8084 372.929L68.8799 374.824ZM72.3133 372.613L71.8842 372.082L74.5855 369.897L75.2419 370.718L72.3133 372.613ZM75.7468 370.402L75.0525 369.53L77.7539 367.344L78.688 368.507L75.7594 370.402L75.7468 370.402ZM78.2083 366.978L80.9096 364.792L82.1214 366.296L79.1929 368.191L78.2209 366.978L78.2083 366.978ZM82.6137 365.967L81.364 364.426L83.8382 362.43L85.3024 364.249L82.6137 365.98L82.6137 365.967ZM85.7947 363.921L84.2926 362.051L86.7919 360.029L88.5087 362.164L85.7947 363.921ZM91.4877 360.257L89.1524 361.76L87.3852 359.562L89.5311 357.831L91.4877 360.257ZM89.0136 357.186L86.8677 358.917L85.0878 356.706L87.0444 354.748L89.0136 357.186ZM84.545 357.249L86.2744 359.397L83.775 361.419L82.2603 359.536L84.545 357.249ZM83.3206 361.798L80.8465 363.794L79.5842 362.227L81.8437 359.966L83.3206 361.798ZM79.1676 362.657L80.3921 364.173L77.6907 366.359L76.7062 365.133L79.1676 362.657ZM76.2896 365.55L77.2363 366.725L74.535 368.911L73.8281 368.027L76.2896 365.55ZM74.0806 369.277L71.3792 371.463L70.9374 370.92L73.3989 368.444L74.0679 369.277L74.0806 369.277ZM70.9248 371.83L68.2235 374.015L68.0594 373.813L70.5209 371.337L70.9122 371.83L70.9248 371.83ZM67.7691 374.382L66.3553 375.519L67.6428 374.23L67.7691 374.382ZM55.8782 374.116L54.8683 372.853L55.0072 372.739L55.8908 374.104L55.8782 374.116ZM54.679 372.246L54.4896 372.398L52.3059 369.694L52.7855 369.315L54.679 372.246ZM52.47 368.81L51.9398 369.239L49.756 366.535L50.5765 365.878L52.47 368.81ZM50.2609 365.373L49.3899 366.068L47.2062 363.364L48.3675 362.429L50.2609 365.373ZM46.8401 362.909L44.6563 360.205L46.1585 358.992L48.0519 361.924L46.8401 362.896L46.8401 362.909ZM45.8303 358.5L44.2902 359.75L42.2958 357.274L44.1135 355.808L45.8429 358.5L45.8303 358.5ZM43.7853 355.316L41.9171 356.819L39.8974 354.317L42.0307 352.599L43.7853 355.316ZM40.1247 349.617L41.6268 351.955L39.4304 353.723L37.701 351.576L40.1247 349.617ZM37.0573 352.094L38.7866 354.242L36.5776 356.023L34.621 354.065L37.0573 352.094ZM37.1204 356.566L39.2663 354.835L41.286 357.337L39.4051 358.853L37.1204 356.566ZM41.6647 357.792L43.6591 360.268L42.0938 361.532L39.8343 359.27L41.6647 357.792ZM42.523 361.949L44.0378 360.723L46.2216 363.427L44.9971 364.413L42.523 361.949ZM45.4137 364.842L46.5876 363.895L48.7714 366.598L47.8878 367.306L45.4137 364.842ZM49.1375 367.053L51.3213 369.757L50.7785 370.199L48.3044 367.736L49.1375 367.066L49.1375 367.053ZM51.6873 370.212L53.8711 372.916L53.6691 373.08L51.195 370.616L51.6873 370.212ZM54.2372 373.371L55.3733 374.786L54.0857 373.497L54.2372 373.371ZM60.7759 378.955C61.6974 379.019 62.4043 379.827 62.3412 380.75C62.278 381.672 61.4702 382.379 60.5487 382.316C59.6272 382.253 58.9203 381.444 58.9834 380.522C59.0465 379.6 59.8544 378.892 60.7759 378.955ZM54.477 385.336L53.2147 386.359L53.1011 386.22L54.4644 385.336L54.477 385.336ZM52.6088 386.536L52.7603 386.726L50.059 388.911L49.6803 388.431L52.6088 386.536ZM49.1754 388.747L49.6045 389.278L46.9032 391.463L46.2468 390.642L49.188 388.747L49.1754 388.747ZM45.7419 390.958L46.4362 391.83L43.7348 394.016L42.8007 392.853L45.7419 390.958ZM43.2804 394.382L40.5791 396.568L39.3673 395.064L42.3084 393.169L43.2804 394.382ZM38.875 395.393L40.1247 396.947L37.6505 398.943L36.1863 397.124L38.875 395.393ZM35.694 397.439L37.1961 399.309L34.6968 401.331L32.98 399.196L35.694 397.439ZM30.001 401.103L32.3363 399.6L34.1035 401.798L31.9576 403.529L30.001 401.103ZM32.4751 404.174L34.621 402.443L36.4009 404.654L34.4443 406.612L32.4751 404.174ZM36.9437 404.123L35.2143 401.975L37.7137 399.954L39.2284 401.836L36.9437 404.123ZM38.1681 399.575L40.6422 397.579L41.9045 399.145L39.645 401.407L38.1681 399.575ZM42.3211 398.716L41.0966 397.2L43.7979 395.014L44.7825 396.239L42.3211 398.716ZM45.1991 395.822L44.2524 394.647L46.9537 392.462L47.6606 393.346L45.1991 395.822ZM47.4081 392.095L50.1095 389.909L50.5513 390.453L48.0898 392.929L47.4208 392.095L47.4081 392.095ZM50.5639 389.543L53.2652 387.357L53.4293 387.559L50.9678 390.036L50.5639 389.543ZM53.7196 386.991L55.1334 385.854L53.8459 387.143L53.7196 386.991ZM65.1435 386.865L66.1659 388.128L66.0271 388.242L65.1435 386.877L65.1435 386.865ZM66.3427 388.735L66.532 388.583L68.7158 391.287L68.2361 391.679L66.3427 388.735ZM68.5517 392.171L69.0818 391.742L71.2656 394.446L70.4451 395.103L68.5517 392.159L68.5517 392.171ZM70.7607 395.608L71.6317 394.913L73.8155 397.617L72.6542 398.552L70.7607 395.621L70.7607 395.608ZM74.1815 398.072L76.3653 400.776L74.8632 401.989L72.9697 399.045L74.1815 398.072ZM75.1914 402.481L76.7314 401.231L78.7258 403.707L76.9081 405.173L75.1788 402.481L75.1914 402.481ZM77.2363 405.665L79.0919 404.162L81.1116 406.664L78.9783 408.382L77.2237 405.665L77.2363 405.665ZM79.3948 409.026L81.5913 407.257L83.3206 409.405L80.897 411.364L79.3948 409.026Z" fill="#F5B400"/>
<path d="M11.2689 434.873L12.2031 430.615L5.8027 429.654L5.24724 434.355L11.2689 434.873Z" fill="#336E7B"/>
<path d="M30.7565 462.278L30.7186 462.594L31.88 462.733L32.5742 456.832L31.4129 456.693L31.375 457.009L30.5672 457.287L30.5419 457.502L2.9985 453.42L2.31685 459.169L30.0622 461.646L30.037 461.836L30.7565 462.278Z" fill="#336E7B"/>
<path d="M31.8172 446.75L31.7919 446.952L4.2485 442.883L3.56685 448.632L31.2996 451.096L31.287 451.298L32.0065 451.728L31.9686 452.044L33.1299 452.183L33.8242 446.283L32.6629 446.144L32.625 446.459L31.8172 446.75Z" fill="#336E7B"/>
<path d="M29.5065 472.815L29.4686 473.131L30.6299 473.27L31.3242 467.369L30.1755 467.23L30.125 467.546L29.3298 467.837L29.3045 468.039L1.7485 463.957L1.06685 469.719L28.8122 472.183L28.787 472.373L29.5065 472.815Z" fill="#336E7B"/>
<path d="M32.9015 469.975L33.6085 470.278L34.9845 469.962L35.6283 469.419L36.2343 469.293L36.1838 469.722L36.5373 469.76L36.6004 469.268L41.8142 469.887L42.155 467.006L36.9412 466.387L36.9791 466.058L42.1929 466.677L42.2434 466.197L37.0296 465.578L37.0675 465.249L42.2939 465.869L42.7988 461.61L37.5725 460.991L37.623 460.663L42.8367 461.269L42.8872 460.802L37.6735 460.182L37.7113 459.854L42.9251 460.461L43.43 456.202L38.2163 455.583L38.2542 455.255L43.4679 455.874L43.531 455.394L38.3173 454.774L38.3552 454.446L43.5689 455.065L44.1875 449.809L38.9737 449.189L39.0116 448.823L39.0874 448.216L38.3047 448.115L38.2415 448.684L38.2289 448.671L36.6509 449.215L35.843 448.899L35.0855 448.81L34.6184 447.938L32.0052 470.089L32.9015 469.975Z" fill="#336E7B"/>
<path d="M42.597 471.971L44.3139 472.186L44.4402 472.198L44.6421 472.223L47.5078 448.001L47.3058 447.975L47.167 447.963L45.4501 447.761L45.1219 447.723L42.2562 471.933L42.597 471.971Z" fill="#336E7B"/>
<path d="M5.23736 424.446L3.63281 424.256L-3.26628 482.6L-1.66174 482.79L5.23736 424.446Z" fill="#336E7B"/>
<path d="M3.22177 420.785L1.61719 420.595L-6.08211 485.803L-4.47753 485.993L3.22177 420.785Z" fill="#336E7B"/>
<path d="M1.39754 416.705L-0.207031 416.515L-8.77516 488.898L-7.17059 489.088L1.39754 416.705Z" fill="#336E7B"/>
<path d="M0.143975 477.555L-0.234753 480.751L3.13588 480.966L3.67872 477.87L7.55433 478.212L8.70312 473.132L0.800425 471.957L0.320712 476.064L0.143975 477.555Z" fill="#336E7B"/>
<path d="M14.6111 441.734L15.9492 436.667L5.1556 435.15L4.49915 440.748L14.6111 441.734Z" fill="#336E7B"/>
<path d="M12.1838 538.278L7.5625 537.517L6.21501 545.708L10.8363 546.47L12.1838 538.278Z" fill="#DC4437"/>
<path d="M17.9182 503.399L13.2969 502.638L11.9494 510.829L16.5707 511.591L17.9182 503.399Z" fill="#DC4437"/>
<path d="M27.9295 553.592L29.3559 554.577L38.1289 501.284L36.4374 501.891L27.9295 553.592Z" fill="#DC4437"/>
<path d="M13.5381 524.935C14.2828 520.412 11.43 516.154 7.17607 515.459L-12.2634 512.25L-12.3391 512.717L4.75244 515.535C8.77918 516.205 11.4931 520.21 10.7862 524.48C10.0794 528.751 6.22934 531.682 2.2026 531.025L-14.889 528.232L-14.9647 528.7L4.47474 531.884C8.7287 532.592 12.7933 529.471 13.5381 524.948L13.5381 524.935Z" fill="#DC4437"/>
<path d="M15.8242 515.979L-12.3882 511.279L-12.4513 511.67L7.25319 514.918C11.8101 515.663 14.8649 520.199 14.0696 525.026C13.2744 529.852 8.91943 533.162 4.37514 532.417L-15.342 529.195L-15.3925 529.511L12.8073 534.11L15.8116 515.979L15.8242 515.979ZM12.9462 518.178C11.6208 516.219 10.7624 515.689 10.7624 515.689L15.2183 516.422L14.3599 521.665C14.3599 521.665 14.259 520.098 12.9588 518.178L12.9462 518.178ZM7.94746 532.758C7.94746 532.758 8.94468 532.531 10.8255 531.103C12.6685 529.701 13.2744 528.248 13.2744 528.248L12.416 533.491L7.96008 532.758L7.94746 532.758Z" fill="#DC4437"/>
<path d="M12.0364 499.236L9.63798 513.829L16.8836 515.03L13.5385 535.346L6.29288 534.146L3.97025 548.259L14.7503 550.04L22.8164 501.018L12.0364 499.236ZM13.1598 537.658L11.5567 547.4L5.23255 546.351L6.83567 536.609L13.1598 537.658ZM18.9033 502.787L17.3001 512.528L10.976 511.479L12.5791 501.738L18.9033 502.787Z" fill="#DC4437"/>
<path d="M-2.24061 496.885L-2.84656 500.537L5.76309 501.953C7.69458 502.268 8.98224 504.113 8.66664 506.084C8.33841 508.043 6.52053 509.382 4.58904 509.066L-4.0206 507.651L-4.65182 511.467L8.62876 513.653L11.0273 499.059L-2.25322 496.873L-2.24061 496.885Z" fill="#DC4437"/>
<path d="M-7.9837 531.795L-8.58965 535.51L0.019994 536.925C1.95148 537.241 3.25177 539.086 2.92354 541.057C2.59532 543.015 0.77744 544.355 -1.15405 544.039L-9.76369 542.623L-10.3065 545.896L2.97404 548.082L5.29687 533.968L-7.9837 531.782L-7.9837 531.795Z" fill="#DC4437"/>
<path d="M19.5863 551.062L24.5472 551.644L32.6133 502.621L27.7534 501.471L28.1952 498.78L26.1124 499.311L25.9736 500.183L24.4336 499.917L15.8878 551.871L17.4278 552.124L17.2637 553.134L19.0435 554.398L19.5863 551.062Z" fill="#DC4437"/>
<path d="M25.7344 551.85L26.7947 552.734L35.1133 502.208L33.8005 502.827L25.7344 551.85Z" fill="#DC4437"/>
</g>
<defs>
<linearGradient id="paint0_linear_2038_12099" x1="-62.2666" y1="264.336" x2="6.45041" y2="263.737" gradientUnits="userSpaceOnUse">
<stop stop-color="white"/>
<stop offset="1" stop-color="#F77D20"/>
</linearGradient>
<linearGradient id="paint1_linear_2038_12099" x1="-131.05" y1="317.052" x2="6.42225" y2="321.393" gradientUnits="userSpaceOnUse">
<stop stop-color="white"/>
<stop offset="1" stop-color="#597696"/>
</linearGradient>
<linearGradient id="paint2_linear_2038_12099" x1="-142.463" y1="208.294" x2="5.81577" y2="207.311" gradientUnits="userSpaceOnUse">
<stop stop-color="white"/>
<stop offset="1" stop-color="#4EB551"/>
</linearGradient>
<linearGradient id="paint3_linear_2038_12099" x1="-61.3461" y1="148.605" x2="0.239088" y2="148.046" gradientUnits="userSpaceOnUse">
<stop stop-color="white"/>
<stop offset="1" stop-color="#AC6BDE"/>
</linearGradient>
<linearGradient id="paint4_linear_2038_12099" x1="-102.774" y1="373.208" x2="-29.4021" y2="375.35" gradientUnits="userSpaceOnUse">
<stop stop-color="white"/>
<stop offset="1" stop-color="#FBC640"/>
</linearGradient>
<linearGradient id="paint5_linear_2038_12099" x1="5.44739" y1="284.278" x2="-149.45" y2="284.278" gradientUnits="userSpaceOnUse">
<stop stop-color="#27AAE1"/>
<stop offset="0.13" stop-color="#4AB7E5"/>
<stop offset="0.8" stop-color="white"/>
</linearGradient>
<clipPath id="clip0_2038_12099">
<rect width="568.561" height="157.328" fill="white" transform="matrix(-4.37114e-08 1 -1 -1.83436e-05 157.328 0.00292969)"/>
</clipPath>
</defs>
</svg>
