<svg width="121" height="102" viewBox="0 0 121 102" fill="none" xmlns="http://www.w3.org/2000/svg">
<path d="M120.545 83.9328C120.545 93.874 112.486 101.933 102.545 101.933L60.1435 101.933C57.3821 101.933 55.1435 99.6943 55.1435 96.9329L55.1435 47.9062C55.1435 42.3833 59.6207 37.9062 65.1435 37.9062L115.545 37.9062C118.306 37.9062 120.545 40.1448 120.545 42.9062L120.545 83.9328Z" fill="#FFF1DA"/>
<path d="M30.9832 66.2047L28.5135 65.0237L13.8418 86.6943H30.2156L31.7934 85.6665V66.9464L30.9832 66.2047Z" fill="#407093"/>
<path d="M28.736 65.1304L23.1833 62.4749H22.1368L6.43555 85.6664L7.3703 86.6942H14.1367L28.736 65.1304Z" fill="#365E7D"/>
<path d="M34.7407 85.6672H13.0896C12.106 85.6672 11.3086 86.4636 11.3086 87.4464V89.7009C11.3086 90.6832 12.1058 91.4796 13.0892 91.4798H34.7407C35.7243 91.4798 36.5217 90.6834 36.5217 89.7009V87.4464C36.5217 86.4636 35.7243 85.6672 34.7407 85.6672Z" fill="#4A80AA"/>
<path d="M11.6775 89.7009V87.4464C11.6775 86.4638 12.4749 85.6672 13.4584 85.6672H1.98997C1.00639 85.6672 0.208984 86.4636 0.208984 87.4464V89.7009C0.208984 90.6834 1.00639 91.4798 1.98997 91.4798H13.4583C12.4747 91.4798 11.6775 90.6834 11.6775 89.7009Z" fill="#407093"/>
<path d="M27.9904 52.2566C27.3239 53.63 26.9473 55.1699 26.9473 56.799C26.9473 61.2507 29.7378 65.0481 33.6652 66.5504C35.3515 66.0226 36.8497 65.0706 38.0332 63.8173V61.5426L27.9904 52.2566Z" fill="#4A80AA"/>
<path d="M27.1251 56.835C27.1251 55.2436 27.4935 53.7394 28.1457 52.3983L24.9355 49.4299H23.6329C21.6631 51.2862 20.4316 53.9161 20.4316 56.8348C20.4316 62.4575 24.9943 67.0154 30.6229 67.0154C31.7953 67.0154 32.9196 66.8144 33.9676 66.4502C29.9846 65.066 27.1251 61.2852 27.1251 56.835Z" fill="#407093"/>
<path d="M86.2926 1.22121C84.6799 -0.389816 82.0652 -0.389816 80.4526 1.22121L76.5117 5.15801V5.65697L81.4305 10.7793L82.3516 10.9919L86.2924 7.05505C87.9053 5.4442 87.9053 2.83223 86.2926 1.22121Z" fill="#FFD086"/>
<path d="M87.382 3.16844C87.21 2.45529 86.8498 1.77804 86.2926 1.22121C84.6799 -0.389816 82.0652 -0.389816 80.4526 1.22121L76.5117 5.15801V5.65697L79.1196 8.37274C80.6744 6.75653 82.2181 5.16159 83.0119 4.36858C84.3352 3.04678 86.2681 3.0366 87.382 3.16844Z" fill="#FFC365"/>
<path d="M72.8012 11.7073C72.756 11.7073 72.7102 11.7049 72.6642 11.7005L27.1234 7.22255C26.3639 7.14787 25.8089 6.47241 25.8837 5.71371C25.9585 4.955 26.635 4.40102 27.3941 4.47516L72.935 8.9529C73.6943 9.02758 74.2494 9.70304 74.1746 10.4617C74.1044 11.1747 73.5033 11.7073 72.8012 11.7073Z" fill="#365E7D"/>
<path d="M40.2932 20.2248C39.6803 20.2248 39.1204 19.8143 38.9577 19.1944C38.764 18.4569 39.2055 17.7023 39.9436 17.5088L72.4482 8.99193C73.1862 8.79882 73.9418 9.23954 74.1353 9.97698C74.3289 10.7143 73.8876 11.4689 73.1494 11.6623L40.6448 20.1792C40.5271 20.21 40.4091 20.2248 40.2932 20.2248Z" fill="#407093"/>
<path d="M81.6299 61.6038C80.9272 61.6038 80.3262 61.0707 80.2563 60.3576L75.8016 14.8363C75.7274 14.0777 76.2828 13.4024 77.0423 13.3281C77.8018 13.2574 78.4776 13.809 78.5518 14.5677L83.0065 60.0891C83.0807 60.8476 82.5253 61.5229 81.7658 61.5972C81.7202 61.6015 81.6748 61.6038 81.6299 61.6038Z" fill="#365E7D"/>
<path d="M68.5216 48.6834C68.4045 48.6834 68.2854 48.6682 68.1666 48.6369C67.4289 48.4415 66.9895 47.6858 67.1852 46.9489L75.8365 14.3527C76.032 13.6156 76.7883 13.1774 77.5261 13.3722C78.2638 13.5676 78.7032 14.3233 78.5076 15.0602L69.8562 47.6563C69.6922 48.2748 69.133 48.6834 68.5216 48.6834Z" fill="#407093"/>
<path d="M72.5527 9.11304L76.5036 5.1662L82.3427 10.9992L78.3918 14.9461L72.5527 9.11304Z" fill="#FFC365"/>
<path d="M75.5524 12.094C76.502 11.1008 77.9849 9.55156 79.4191 8.06202L76.5122 5.15796L72.5605 9.10531L75.5524 12.094Z" fill="#FFA90F"/>
<path d="M79.2797 17.1975C78.9261 17.1975 78.5724 17.0627 78.3027 16.7933L70.7036 9.20228C70.1639 8.66313 70.1639 7.78937 70.7036 7.25004C71.2431 6.71125 72.118 6.71125 72.6577 7.25004L80.2568 14.841C80.7965 15.3802 80.7965 16.2539 80.2568 16.7933C79.9869 17.0629 79.6334 17.1975 79.2797 17.1975Z" fill="#4A80AA"/>
<path d="M80.1722 64.0882L33.9061 17.4695C27.7722 31.3027 26.7071 46.1526 31.2991 58.9581C43.9811 70.386 62.9257 72.1409 80.366 64.9572L80.1722 64.0882Z" fill="#B5DCFF"/>
<path d="M34.1522 17.7184L23.552 7.03735L22.4897 7.14204C15.0214 25.2358 17.2021 44.9516 29.8594 57.5958C30.626 58.3616 31.4193 59.0884 32.2361 59.7777C26.9004 46.9875 27.7676 31.7751 34.1522 17.7184Z" fill="#8BCAFF"/>
<path d="M84.4007 60.7749L37.4771 13.9001C37.0154 13.9712 36.5708 14.181 36.2153 14.5361L34.1743 16.5752C33.736 17.013 33.518 17.5849 33.5117 18.1589L80.2865 64.8848C80.982 65.5796 82.1095 65.5796 82.805 64.8848L84.4009 63.2908C85.0962 62.5962 85.0962 61.4696 84.4007 60.7749Z" fill="#DBEDFF"/>
<path d="M34.2443 16.6102L36.2427 14.6139C36.6107 14.2462 37.0755 14.0358 37.5551 13.9788L26.6772 3.11213C25.9817 2.41738 24.8542 2.41738 24.1585 3.11213L22.5626 4.70636C21.8671 5.40111 21.8671 6.52747 22.5626 7.22222L33.5935 18.2416C33.579 17.6528 33.7945 17.0595 34.2443 16.6102Z" fill="#B5DCFF"/>
</svg>
