<svg width="18" height="17" viewBox="0 0 18 17" fill="none" xmlns="http://www.w3.org/2000/svg">
<path d="M10.7876 3.75C11.5201 3.89292 12.1934 4.25119 12.7211 4.77895C13.2489 5.30671 13.6071 5.97995 13.7501 6.7125M10.7876 0.75C12.3095 0.919077 13.7288 1.60063 14.8123 2.68276C15.8957 3.76488 16.5791 5.18326 16.7501 6.705M16.0001 12.69V14.94C16.0009 15.1489 15.9581 15.3556 15.8745 15.547C15.7908 15.7384 15.668 15.9102 15.5141 16.0514C15.3602 16.1926 15.1785 16.3001 14.9806 16.367C14.7828 16.4339 14.5731 16.4588 14.3651 16.44C12.0572 16.1892 9.84032 15.4006 7.89257 14.1375C6.08044 12.986 4.54407 11.4496 3.39257 9.6375C2.12506 7.6809 1.33625 5.45325 1.09007 3.135C1.07133 2.9276 1.09598 2.71857 1.16245 2.52122C1.22892 2.32387 1.33575 2.14252 1.47615 1.98872C1.61654 1.83491 1.78743 1.71203 1.97792 1.62789C2.1684 1.54375 2.37433 1.5002 2.58257 1.5H4.83257C5.19655 1.49642 5.54942 1.62531 5.82539 1.86265C6.10137 2.09999 6.28163 2.42959 6.33257 2.79C6.42754 3.51005 6.60366 4.21705 6.85757 4.8975C6.95848 5.16594 6.98032 5.45769 6.9205 5.73816C6.86069 6.01863 6.72172 6.27608 6.52007 6.48L5.56757 7.4325C6.63524 9.31016 8.18991 10.8648 10.0676 11.9325L11.0201 10.98C11.224 10.7784 11.4814 10.6394 11.7619 10.5796C12.0424 10.5198 12.3341 10.5416 12.6026 10.6425C13.283 10.8964 13.99 11.0725 14.7101 11.1675C15.0744 11.2189 15.4071 11.4024 15.645 11.6831C15.8828 11.9638 16.0092 12.3222 16.0001 12.69Z" stroke="#0090C5" stroke-linecap="round" stroke-linejoin="round"/>
</svg>
