<svg width="149" height="145" viewBox="0 0 149 145" fill="none" xmlns="http://www.w3.org/2000/svg">
<path d="M11.5586 4.61035V6.47949H0.837891V4.61035H11.5586ZM7.19727 0.0449219V11.4316H5.20996V0.0449219H7.19727Z" fill="#FF7152"/>
<path d="M11.5586 37.9268V39.7959H0.837891V37.9268H11.5586ZM7.19727 33.3613V44.748H5.20996V33.3613H7.19727Z" fill="#0090C5"/>
<path d="M11.5586 71.2422V73.1113H0.837891V71.2422H11.5586ZM7.19727 66.6768V78.0635H5.20996V66.6768H7.19727Z" fill="#0090C5"/>
<path d="M57.3398 4.61035V6.47949H46.6191V4.61035H57.3398ZM52.9785 0.0449219V11.4316H50.9912V0.0449219H52.9785Z" fill="#0090C5"/>
<path d="M57.3398 37.9268V39.7959H46.6191V37.9268H57.3398ZM52.9785 33.3613V44.748H50.9912V33.3613H52.9785Z" fill="#0090C5"/>
<path d="M57.3398 71.2422V73.1113H46.6191V71.2422H57.3398ZM52.9785 66.6768V78.0635H50.9912V66.6768H52.9785Z" fill="#0090C5"/>
<path d="M57.3398 104.559V106.428H46.6191V104.559H57.3398ZM52.9785 99.9932V111.38H50.9912V99.9932H52.9785Z" fill="#0090C5"/>
<path d="M103.121 4.61035V6.47949H92.4004V4.61035H103.121ZM98.7598 0.0449219V11.4316H96.7725V0.0449219H98.7598Z" fill="#0090C5"/>
<path d="M103.121 37.9268V39.7959H92.4004V37.9268H103.121ZM98.7598 33.3613V44.748H96.7725V33.3613H98.7598Z" fill="#0090C5"/>
<path d="M103.121 71.2422V73.1113H92.4004V71.2422H103.121ZM98.7598 66.6768V78.0635H96.7725V66.6768H98.7598Z" fill="#6246E5"/>
<path d="M103.121 104.559V106.428H92.4004V104.559H103.121ZM98.7598 99.9932V111.38H96.7725V99.9932H98.7598Z" fill="#0090C5"/>
<path d="M103.121 137.874V139.743H92.4004V137.874H103.121ZM98.7598 133.309V144.695H96.7725V133.309H98.7598Z" fill="#0090C5"/>
<path d="M148.902 4.61035V6.47949H138.182V4.61035H148.902ZM144.541 0.0449219V11.4316H142.554V0.0449219H144.541Z" fill="#0090C5"/>
<path d="M148.902 37.9268V39.7959H138.182V37.9268H148.902ZM144.541 33.3613V44.748H142.554V33.3613H144.541Z" fill="#0090C5"/>
<path d="M148.902 71.2422V73.1113H138.182V71.2422H148.902ZM144.541 66.6768V78.0635H142.554V66.6768H144.541Z" fill="#0090C5"/>
<path d="M148.902 104.559V106.428H138.182V104.559H148.902ZM144.541 99.9932V111.38H142.554V99.9932H144.541Z" fill="#0090C5"/>
<path d="M148.902 137.874V139.743H138.182V137.874H148.902ZM144.541 133.309V144.695H142.554V133.309H144.541Z" fill="#0090C5"/>
</svg>
