<svg width="121" height="101" viewBox="0 0 121 101" fill="none" xmlns="http://www.w3.org/2000/svg">
<path d="M35.5937 68.2532C35.5937 78.1943 43.6526 86.2532 53.5938 86.2532L95.9952 86.2532C98.7566 86.2532 100.995 84.0146 100.995 81.2532L100.995 32.2265C100.995 26.7037 96.518 22.2265 90.9952 22.2265L40.5937 22.2265C37.8323 22.2265 35.5937 24.4651 35.5937 27.2265L35.5937 68.2532Z" fill="#FFF1DA"/>
<path d="M65.68 36.4012V28.958C65.68 27.4988 64.4959 26.316 63.0352 26.316H60.1855C59.046 26.316 58.035 25.5867 57.6768 24.5061C57.2778 23.3024 56.793 22.1377 56.2298 21.0192C55.7169 20.0006 55.9132 18.7691 56.7203 17.9628L58.7365 15.9486C59.7694 14.9168 59.7694 13.2441 58.7365 12.2123L53.4678 6.94905C52.4349 5.91726 50.7604 5.91726 49.7276 6.94905L47.7113 8.96321C46.9041 9.76956 45.6714 9.96556 44.6516 9.45315C43.5321 8.89052 42.3662 8.40623 41.1612 8.00766C40.0795 7.64984 39.3494 6.63987 39.3494 5.5016V2.65493C39.3494 1.19577 38.1653 0.0129395 36.7047 0.0129395H29.2536C27.793 0.0129395 26.6089 1.19577 26.6089 2.65493V5.50173C26.6089 6.64 25.8788 7.64997 24.7971 8.00779C23.5921 8.40637 22.4262 8.89065 21.3066 9.45328C20.2869 9.96569 19.0542 9.76956 18.247 8.96334L16.2307 6.94918C15.1979 5.91739 13.5233 5.91739 12.4905 6.94918L7.22204 12.2124C6.18917 13.2442 6.18917 14.917 7.22204 15.9488L9.23829 17.9629C10.0454 18.7693 10.2417 20.0007 9.72874 21.0194C9.16552 22.1378 8.68074 23.3025 8.28175 24.5062C8.02857 25.2699 7.44943 25.858 6.72935 26.1373C6.43051 26.2533 6.23891 26.4474 5.90467 26.4474H3.0549C1.59422 26.4474 0.410156 27.6303 0.410156 29.0894V36.2698C0.410156 37.7289 1.59422 38.9118 3.0549 38.9118H5.90467C7.04412 38.9118 8.05515 39.7725 8.41334 40.8531C8.81233 42.0568 9.29712 43.2214 9.86033 44.34C10.3733 45.3586 10.1769 46.5901 9.36989 47.3964L7.48522 49.4106C6.45235 50.4424 6.45235 52.1152 7.48522 53.1469L12.4907 58.1472C13.5236 59.179 15.1981 59.179 16.231 58.1472L18.2472 56.1331C19.0543 55.3267 20.2872 55.1307 21.3069 55.6432C22.4265 56.2058 23.8556 56.8215 25.0606 57.2201C26.1423 57.5779 26.8723 58.5879 26.8723 59.7262V62.573C26.8723 64.0321 28.0564 65.2149 29.5171 65.2149H36.5733C38.034 65.2149 39.2181 64.0321 39.2181 62.573V59.7262C39.2181 59.3923 39.4124 59.2009 39.5285 58.9023C39.8081 58.183 40.397 57.6045 41.1613 57.3515C42.3663 56.953 43.5322 56.4687 44.6518 55.9061C45.6715 55.3937 46.9043 55.5898 47.7114 56.396L49.7277 58.4102C50.7606 59.4419 52.4351 59.4419 53.4679 58.4102L58.7366 53.1469C59.7695 52.1152 59.7695 50.4424 58.7366 49.4106L56.7204 47.3964C55.9133 46.5901 55.717 45.3586 56.2299 44.34C56.7932 43.2215 57.2779 42.0568 57.6769 40.8531C58.0351 39.7725 59.0462 39.0432 60.1856 39.0432H63.0354C64.4959 39.0432 65.68 37.8604 65.68 36.4012Z" fill="#B6C4CF"/>
<path d="M39.5274 58.9022C39.4116 59.2006 39.3484 59.524 39.3484 59.8579V62.7039C39.3484 64.1631 38.1641 65.3462 36.7034 65.3462H29.2527C27.792 65.3462 26.6077 64.1631 26.6077 62.7039V59.8579C26.6077 58.7195 25.8773 57.7086 24.7956 57.351C23.5916 56.9527 22.4257 56.469 21.3058 55.9064C20.286 55.3937 19.0529 55.5895 18.2463 56.3954L16.2303 58.4093C15.1973 59.4412 13.5221 59.4412 12.4891 58.4093L7.22016 53.1471C6.18847 52.1152 6.18847 50.4418 7.22016 49.4098L9.23747 47.3959C10.0441 46.5901 10.2402 45.3584 9.72699 44.3396C9.16378 43.2209 8.67952 42.0562 8.28079 40.8534C7.92286 39.7728 6.91092 39.0433 5.77133 39.0433H2.92235C1.46168 39.0433 0.277344 37.8602 0.277344 36.401V28.958C0.277344 27.4988 1.46168 26.3157 2.92235 26.3157H5.77133C6.10557 26.3157 6.42929 26.2526 6.728 26.137C6.72537 26.3013 6.72406 26.4669 6.72406 26.6326C6.72406 44.4566 21.1887 58.9062 39.0313 58.9062C39.1971 58.9062 39.3629 58.9049 39.5274 58.9022Z" fill="#9FACBA"/>
<path d="M32.9784 54.3698C44.97 54.3698 54.6911 44.6588 54.6911 32.6796C54.6911 20.7005 44.97 10.9895 32.9784 10.9895C20.9868 10.9895 11.2656 20.7005 11.2656 32.6796C11.2656 44.6588 20.9868 54.3698 32.9784 54.3698Z" fill="#9FACBA"/>
<path d="M32.9781 49.7685C42.426 49.7685 50.0851 42.1174 50.0851 32.6793C50.0851 23.2412 42.426 15.5901 32.9781 15.5901C23.5302 15.5901 15.8711 23.2412 15.8711 32.6793C15.8711 42.1174 23.5302 49.7685 32.9781 49.7685Z" fill="#F8F7F7"/>
</svg>
