<svg
      width="32"
      height="34"
      viewBox="0 0 32 34"
      fill="none"
      xmlns="http://www.w3.org/2000/svg"
    >
      <rect
        opacity="0.5"
        y="15.833"
        width="32"
        height="18"
        rx="9"
        fill="#D8DBFA"
      />
      <path
        d="M21.5625 5.64854L16.3281 0.344375C15.875 -0.114792 15.125 -0.114792 14.6719 0.344375L9.4375 5.64854C8.98438 6.10771 8.98438 6.86771 9.4375 7.32688C9.89062 7.78604 10.6406 7.78604 11.0938 7.32688L14.3281 4.04937V20.9752C14.3281 21.6244 14.8594 22.1627 15.5 22.1627C16.1406 22.1627 16.6719 21.6244 16.6719 20.9752V4.04937L19.9063 7.32688C20.1406 7.56438 20.4375 7.67521 20.7344 7.67521C21.0313 7.67521 21.3281 7.56438 21.5625 7.32688C22.0313 6.86771 22.0313 6.12354 21.5625 5.64854Z"
        fill="white"
      />
    </svg>